<svg width="772" height="300" viewBox="0 0 772 300" fill="none" xmlns="http://www.w3.org/2000/svg">
<g clip-path="url(#clip0_1_2724)">
<path d="M428.806 92.3945H410.487L385.439 139.527V92.3945H368.99V207.607H385.439V173.941L393.29 159.352L411.982 207.607H429.18L403.384 140.275L428.806 92.3945Z" fill="white"/>
<path d="M481.145 179.926C481.145 187.033 475.537 193.018 468.434 193.018C461.331 193.018 455.349 187.407 455.349 179.926V92.3945H438.9V179.552C438.9 195.636 451.984 208.729 468.06 208.729C484.135 208.729 497.22 195.636 497.22 179.552V92.3945H481.145V179.926Z" fill="white"/>
<path d="M538.718 92.3945H509.557V207.607H538.718C554.793 207.607 567.878 194.514 567.878 178.429V121.572C567.878 105.487 554.793 92.3945 538.718 92.3945ZM551.429 179.178C551.429 186.285 545.821 191.896 538.718 191.896H525.633V107.731H538.718C545.821 107.731 551.429 113.342 551.429 120.449V179.178Z" fill="white"/>
<path d="M613.861 92.3945H598.16L573.486 207.607H590.309L594.047 189.651H618.721L622.46 207.607H639.283L614.235 92.7686L613.861 92.3945ZM614.983 174.315H596.664L605.637 130.549L614.983 174.315Z" fill="white"/>
<path d="M672.556 91.2715C656.48 91.2715 643.396 104.364 643.396 120.449V179.177C643.396 195.262 656.48 208.354 672.556 208.354C688.631 208.354 701.716 195.262 701.716 179.177V159.725H671.06V175.062H685.267V179.925C685.267 187.032 679.659 193.017 672.556 193.017C665.453 193.017 659.471 187.406 659.471 179.925V119.7C659.471 112.593 665.079 106.608 672.556 106.608C679.659 106.608 685.267 112.219 685.267 119.7V127.182H701.716V120.823C701.716 104.364 688.631 91.2715 672.556 91.2715Z" fill="white"/>
<path d="M742.84 91.2715C726.764 91.2715 713.679 104.364 713.679 120.449V179.177C713.679 195.262 726.764 208.354 742.84 208.354C758.915 208.354 772 195.262 772 179.177V120.449C772 104.364 758.915 91.2715 742.84 91.2715ZM729.755 119.7C729.755 112.593 735.363 106.608 742.84 106.608C749.943 106.608 755.55 112.219 755.55 119.7V179.925C755.55 187.032 749.943 193.017 742.84 193.017C735.736 193.017 729.755 187.406 729.755 179.925V119.7Z" fill="white"/>
<path fill-rule="evenodd" clip-rule="evenodd" d="M116.641 7.4811C195.15 -10.8481 273.658 37.7803 291.977 116.334C310.295 194.888 261.695 273.441 183.186 291.77C104.678 310.474 25.7956 261.845 7.47692 183.292C-10.8417 104.738 38.1326 26.1843 116.641 7.4811Z" fill="#EE3942"/>
<path d="M149.914 300C81.8731 300 20.1879 253.242 4.11235 184.414C-14.954 103.616 35.1419 22.8181 115.52 4.11486C154.4 -4.8627 194.776 1.4964 228.796 22.8181C262.816 43.7657 286.369 77.0575 295.715 115.96C314.408 196.384 264.312 277.182 183.934 295.885C172.345 298.504 161.129 300 149.914 300ZM117.389 11.2221C41.1235 29.1772 -6.7293 105.86 11.2155 182.544C29.1603 258.853 105.8 306.733 182.065 288.778C258.33 270.823 306.183 194.14 288.238 117.831C279.64 80.7981 257.209 49.3767 224.684 29.1772C192.533 8.9777 154.4 2.6186 117.389 11.2221Z" fill="white"/>
<path fill-rule="evenodd" clip-rule="evenodd" d="M159.26 126.434C162.251 129.052 167.111 128.678 169.728 125.686C172.345 122.693 171.971 117.83 168.98 115.212C165.989 112.594 161.129 112.968 158.512 115.96C155.895 119.327 156.269 123.815 159.26 126.434Z" fill="white"/>
<path fill-rule="evenodd" clip-rule="evenodd" d="M128.978 203.119C126.361 209.104 122.623 214.341 115.52 221.448C114.024 222.945 117.763 225.937 119.258 228.556C119.632 235.289 120.006 250.999 122.623 255.488H128.978C124.866 246.511 126.735 236.785 127.109 226.685C126.735 224.815 125.987 223.319 124.866 221.822C127.483 215.463 130.474 211.723 131.969 204.241L128.978 203.119Z" fill="white"/>
<path fill-rule="evenodd" clip-rule="evenodd" d="M177.205 209.104L169.728 208.355C170.475 215.463 173.466 219.577 176.457 223.692C174.962 231.922 172.719 241.647 173.092 253.991H179.448C180.569 243.144 183.186 229.677 186.177 222.196C182.439 218.455 178.7 212.47 177.205 209.104Z" fill="white"/>
<path d="M173.84 163.841V160.849C173.84 160.475 173.466 159.727 172.718 159.727C172.345 159.727 171.597 160.101 171.597 160.849V163.841C171.597 164.215 171.597 164.215 171.971 164.589C172.345 164.589 173.092 164.589 173.466 164.589C173.84 164.215 173.84 164.215 173.84 163.841Z" fill="white"/>
<path d="M163.372 161.597V158.605C163.372 158.231 162.998 157.482 162.251 157.482C161.877 157.482 161.129 157.856 161.129 158.605V161.597C161.503 161.971 161.877 162.345 162.251 162.345C162.998 162.345 163.372 161.971 163.372 161.597Z" fill="white"/>
<path fill-rule="evenodd" clip-rule="evenodd" d="M177.205 148.879C176.457 148.879 176.457 148.879 176.457 148.879C175.709 151.123 173.84 152.62 171.223 152.62L164.12 152.994C163.372 152.994 162.251 152.994 161.503 152.62C161.503 153.368 161.129 154.116 161.129 154.49C161.877 155.986 164.868 157.482 168.98 158.231C175.335 158.979 182.065 157.482 184.308 155.238C186.551 152.245 183.56 149.627 177.205 148.879Z" fill="white"/>
<path fill-rule="evenodd" clip-rule="evenodd" d="M139.446 156.735C139.82 156.735 140.567 157.109 140.941 157.109L141.689 155.238H139.82C139.446 155.612 139.446 155.986 139.446 156.735Z" fill="white"/>
<path fill-rule="evenodd" clip-rule="evenodd" d="M108.79 88.2803C115.146 90.1506 125.614 84.1656 134.96 84.9137C142.437 85.2878 154.4 88.2803 161.503 92.0209L151.783 119.328C151.783 121.572 151.035 124.191 149.54 126.061L143.184 143.642H144.68C145.054 143.642 145.428 143.642 145.801 143.642C145.801 143.268 146.175 142.894 146.175 142.52C147.297 138.779 148.792 135.787 150.288 133.542L155.522 119.328C155.522 118.205 156.269 116.709 156.643 115.587L181.691 46.0109C182.065 45.2628 181.691 44.5147 180.943 44.1406C180.569 44.1406 179.822 44.1406 179.448 44.5147C179.448 44.5147 179.448 44.5147 179.448 44.1406C176.457 47.5072 155.895 45.2628 137.951 44.8888C124.492 44.5147 110.286 43.3925 100.566 48.2553C94.2101 54.6144 83.3685 73.6917 77.7607 83.7915C89.7239 82.2952 100.192 85.6618 108.79 88.2803Z" fill="white"/>
<path fill-rule="evenodd" clip-rule="evenodd" d="M241.881 145.886C229.544 139.901 228.796 132.42 219.076 124.565C217.954 124.939 217.207 124.939 216.459 124.565C218.328 123.068 220.945 121.198 225.058 125.313C223.936 120.076 215.337 117.831 209.356 121.572C207.487 119.702 207.487 117.457 207.487 115.213C205.243 118.205 204.496 121.198 204.496 124.939C201.505 123.816 197.766 124.565 194.776 127.183C190.289 130.55 191.037 131.298 185.803 133.168C186.551 133.916 189.168 133.542 190.29 132.794C188.046 136.161 183.56 137.283 179.822 136.161C180.569 138.405 183.186 138.779 185.803 138.779C183.56 140.275 181.691 142.52 176.083 141.397C177.952 142.894 180.196 144.39 183.186 144.39C182.439 145.512 181.317 146.26 180.569 147.008C186.925 148.879 187.673 152.245 186.551 155.238V160.849C186.551 160.849 187.299 161.223 186.925 161.971C186.925 163.467 185.056 164.964 181.317 166.086C180.196 166.46 179.074 166.46 177.579 166.46C178.326 167.582 178.7 168.704 178.7 169.826L176.831 191.522C176.831 193.392 176.083 194.889 175.336 196.011C174.588 196.759 173.092 197.881 170.849 197.881C170.849 197.881 170.849 197.881 170.475 197.881C168.232 197.881 164.494 196.759 164.494 190.4L165.242 173.941C162.998 173.567 159.26 173.193 156.269 172.819C155.895 172.819 155.148 172.819 154.774 172.445V191.522C154.774 195.263 152.531 197.507 148.792 197.507H148.418H148.044C144.68 196.759 142.811 194.889 142.437 190.774V172.071C141.315 172.071 140.194 171.697 139.072 171.697C135.334 171.323 131.969 170.949 129.352 170.574H128.978C126.361 170.2 124.118 168.704 122.997 166.46C122.623 165.712 122.249 164.964 121.875 164.215C120.753 164.215 120.006 164.589 119.258 164.589C117.389 165.338 115.52 166.086 113.65 167.208C106.547 161.971 96.4532 159.727 88.6023 163.841C78.8822 169.078 81.873 178.056 70.2837 179.926C76.6391 182.545 84.1161 179.552 87.4808 172.819C85.9854 180.3 69.536 189.652 63.5544 176.185C61.3113 178.804 63.1805 184.041 66.1713 185.537C61.3113 186.659 59.442 184.041 57.5728 181.048C56.8251 195.637 67.2929 203.866 82.6207 196.011C81.1253 199.003 75.8914 202.37 66.919 201.996C86.3592 207.607 97.2009 190.4 97.2009 182.919C97.9486 185.911 97.2009 188.53 95.7055 191.896C108.043 185.537 97.5747 171.323 108.79 170.574C109.164 170.574 109.538 170.574 109.912 170.574C107.295 173.941 105.426 178.056 105.426 182.919C105.426 186.659 106.547 190.026 108.79 193.018C105.799 201.622 104.304 210.973 99.8178 217.333C99.0701 222.195 100.939 227.058 101.687 232.295C103.556 243.143 101.687 248.38 101.687 254.739H109.164C110.286 247.258 110.659 236.036 109.912 221.447C116.641 215.836 122.623 207.981 126.361 199.377C147.671 200.5 154.026 204.988 179.448 205.737C181.691 211.348 185.803 217.333 190.29 220.699C193.28 228.555 192.533 242.021 193.28 252.869H200.01C199.262 239.776 200.01 230.425 200.383 219.951C198.14 211.348 196.271 204.614 196.271 198.629C198.14 196.385 199.636 193.392 200.383 189.652C201.879 172.445 203.374 152.993 208.982 147.008C216.085 146.26 225.058 152.993 237.768 154.864C239.264 153.742 239.638 151.871 239.264 149.253C240.759 149.627 241.507 148.879 241.881 145.886Z" fill="white"/>
<path fill-rule="evenodd" clip-rule="evenodd" d="M175.335 166.833C173.466 166.833 172.345 166.833 168.606 166.459C163.372 165.711 158.512 164.215 158.138 160.474C158.138 160.474 158.512 154.115 159.26 150.374L158.512 148.878C158.512 148.878 157.017 142.893 157.765 141.771C158.138 141.397 158.138 141.023 158.512 141.023L160.008 147.008C160.381 147.756 160.755 148.504 161.503 149.252C162.251 150 162.998 150.374 164.12 150.374L171.223 150C173.092 150 174.214 148.878 174.214 147.008C174.214 144.763 172.719 144.389 170.849 144.389H166.737L164.868 136.908C164.868 136.534 164.494 136.16 164.494 136.16C164.12 133.916 162.625 131.297 159.634 130.923C156.269 130.175 154.026 131.671 151.409 134.664C149.54 136.534 148.044 140.275 146.923 144.763C147.297 145.138 147.671 145.138 148.044 145.512C149.166 146.634 149.914 148.13 149.54 149.626C149.54 151.123 148.792 152.619 147.297 153.367C146.923 153.741 146.175 154.115 145.427 154.489C145.427 154.863 145.427 155.237 145.427 155.611C145.427 156.359 145.427 157.108 145.427 157.856C146.923 158.23 148.418 158.604 149.54 158.978C152.904 160.1 154.026 162.345 154.026 163.841C154.4 164.589 154.4 165.337 154.4 166.085V169.452C155.148 169.452 155.521 169.826 156.269 169.826C160.755 170.574 167.111 171.322 167.111 171.322L166.363 189.651C166.363 193.018 167.858 194.888 170.102 194.888C172.719 194.888 173.84 193.018 174.214 190.399L176.457 168.704C177.205 167.955 175.709 166.833 175.335 166.833Z" fill="white"/>
<path fill-rule="evenodd" clip-rule="evenodd" d="M152.531 164.962C152.531 163.84 151.409 162.718 149.54 161.97C145.054 160.473 140.941 159.351 137.203 158.603C137.203 157.481 137.203 156.359 137.577 154.862L133.464 154.488C130.473 154.114 128.604 152.244 128.978 149.251C128.978 148.129 130.1 147.007 131.221 146.633C130.847 147.007 130.473 147.755 130.1 148.503C130.1 150.374 131.595 151.87 133.838 152.244L143.558 152.992C145.801 152.992 147.671 151.87 147.671 150C147.671 148.129 146.175 146.633 143.932 146.259L138.324 145.885V145.137C139.072 142.144 139.82 139.526 140.941 138.03C142.811 135.411 141.315 130.174 136.829 129.052C133.464 128.304 131.221 129.8 128.604 132.793C125.24 136.907 121.875 151.122 123.37 160.473C123.744 162.718 124.118 166.833 129.352 167.955H129.726C133.09 168.703 138.324 169.077 143.932 169.451C144.306 169.451 144.306 169.451 144.68 169.451L145.427 189.65C145.801 193.017 146.923 193.765 149.166 194.139C151.409 194.139 152.904 192.643 152.904 190.399V165.71C152.904 166.084 152.904 165.336 152.531 164.962Z" fill="white"/>
<path fill-rule="evenodd" clip-rule="evenodd" d="M137.203 125.312C140.194 127.93 144.68 127.556 147.297 124.564C149.914 121.571 149.54 117.082 146.549 114.464C143.558 111.845 139.072 112.22 136.455 115.212C133.838 117.831 134.212 122.693 137.203 125.312Z" fill="white"/>
<path d="M179.074 160.476C179.074 160.102 178.7 159.354 177.952 159.354C177.579 159.354 176.831 159.728 176.831 160.476V163.468C176.831 163.842 177.205 164.59 177.952 164.59C178.326 164.59 179.074 164.216 179.074 163.468V160.476Z" fill="white"/>
<path d="M183.934 158.978C183.934 158.604 183.56 157.855 182.812 157.855C182.439 157.855 181.691 158.23 181.691 158.978V161.97C181.691 162.344 182.065 163.092 182.812 163.092C183.186 163.092 183.934 162.718 183.934 161.97V158.978Z" fill="white"/>
<path d="M167.485 159.354C167.111 159.354 166.363 159.728 166.363 160.476V163.468C166.363 163.842 166.363 163.842 166.737 163.842C167.111 163.842 167.485 163.842 168.232 164.216C168.606 164.216 168.606 163.842 168.606 163.468V160.476C168.606 160.102 167.858 159.354 167.485 159.354Z" fill="white"/>
</g>
<defs>
<clipPath id="clip0_1_2724">
<rect width="772" height="300" fill="white"/>
</clipPath>
</defs>
</svg>
