<?xml version="1.0" encoding="UTF-8"?> <svg xmlns="http://www.w3.org/2000/svg" width="3371" height="1484" viewBox="0 0 3371 1484" fill="none"><path d="M493.352 147.133H151.555V244.789H493.352V147.133ZM151.555 391.273V635.414H5.07031V122.719C5.07031 41.3385 45.7604 0.648438 127.141 0.648438H517.766C599.146 0.648438 639.836 41.3385 639.836 122.719V269.203C639.836 350.583 599.146 391.273 517.766 391.273H151.555ZM955.148 635.414H808.664V0.648438H955.148V635.414ZM1785.11 635.414H1600.54L1441.36 434.242L1282.18 635.414H1097.61L1349.56 318.031L1097.61 0.648438H1282.18L1441.36 201.82L1600.54 0.648438H1785.11L1534.13 318.031L1785.11 635.414ZM2074.05 391.273V488.93H2562.34V635.414H2049.64C1968.26 635.414 1927.57 594.724 1927.57 513.344V122.719C1927.57 41.3385 1968.26 0.648438 2049.64 0.648438H2562.34V147.133H2074.05V244.789H2562.34V391.273H2074.05ZM2877.65 488.93H3365.93V635.414H2853.23C2771.85 635.414 2731.16 594.724 2731.16 513.344V0.648438H2877.65V488.93ZM357.375 1385.41H123C41.6198 1385.41 0.929688 1344.72 0.929688 1263.34V872.719C0.929688 791.339 41.6198 750.648 123 750.648H513.625C595.005 750.648 635.695 791.339 635.695 872.719V1263.34C635.695 1344.72 614.536 1385.41 572.219 1385.41L669.875 1483.07H455.031L357.375 1385.41ZM489.211 1238.93V897.133H147.414V1238.93H489.211ZM1172.8 750.648H1319.29V1263.34C1319.29 1344.72 1278.6 1385.41 1197.22 1385.41H806.594C725.214 1385.41 684.523 1344.72 684.523 1263.34V750.648H831.008V1238.93H1172.8V750.648ZM1514.6 1141.27V1238.93H2002.88V1385.41H1490.19C1408.81 1385.41 1368.12 1344.72 1368.12 1263.34V872.719C1368.12 791.339 1408.81 750.648 1490.19 750.648H2002.88V897.133H1514.6V994.789H2002.88V1141.27H1514.6ZM2686.48 750.648V897.133H2198.2V994.789H2564.41C2645.79 994.789 2686.48 1035.48 2686.48 1116.86V1263.34C2686.48 1344.72 2645.79 1385.41 2564.41 1385.41H2051.71V1238.93H2539.99V1141.27H2173.78C2092.4 1141.27 2051.71 1100.58 2051.71 1019.2V872.719C2051.71 791.339 2092.4 750.648 2173.78 750.648H2686.48ZM3125.93 897.133V1385.41H2979.45V897.133H2735.3V750.648H3370.07V897.133H3125.93Z" fill="white"></path></svg> 