<?xml version="1.0" encoding="UTF-8"?> <!-- Creator: CorelDRAW 2021.5 --> <svg xmlns="http://www.w3.org/2000/svg" xmlns:xlink="http://www.w3.org/1999/xlink" xmlns:xodm="http://www.corel.com/coreldraw/odm/2003" xml:space="preserve" width="150mm" height="45mm" style="shape-rendering:geometricPrecision; text-rendering:geometricPrecision; image-rendering:optimizeQuality; fill-rule:evenodd; clip-rule:evenodd" viewBox="0 0 15000 4500"> <defs> <style type="text/css"> <![CDATA[ .fil0 {fill:#CEBAA2;fill-rule:nonzero} ]]> </style> </defs> <g id="Слой_x0020_1"> <metadata id="CorelCorpID_0Corel-Layer"></metadata> <g id="_2127245883248"> <path class="fil0" d="M6807.26 3833.64c0,-42.93 -8.53,-76.88 -25.48,-102 -17,-24.97 -43.85,-37.5 -80.63,-37.5 -16.67,0 -32.4,2.51 -47.16,7.47 -14.77,5.06 -26.62,10.53 -35.51,16.73l0 251.48c7.25,1.64 16.55,3.19 27.95,4.56 11.39,1.37 25.19,2.05 41.38,2.05 37.28,0 66.53,-12.67 87.68,-38.02 21.2,-25.28 31.77,-60.24 31.77,-104.77zm103.6 1.64c0,35.05 -5.16,66.73 -15.45,94.71 -10.3,28.16 -25.07,52.36 -44.3,72.37 -19.19,20.05 -42.48,35.32 -69.74,45.85 -27.3,10.71 -58.2,15.96 -92.75,15.96 -33.41,0 -65.25,-2.51 -95.65,-7.57 -30.36,-4.98 -55.51,-10.57 -75.58,-16.64l0 -618.14 101.09 -16.77 0 226.37c11.67,-6.01 26.02,-11.67 42.99,-16.77 17.04,-4.92 35.82,-7.38 56.41,-7.38 30.64,0 58.08,5.32 82.27,16.22 24.2,10.81 44.39,26.35 60.57,46.35 16.13,20.1 28.48,44.21 37.14,72.24 8.67,28.11 13,59.16 13,93.2z"></path> <path class="fil0" d="M7346.04 3616.44c-45.03,166.03 -97.26,316.3 -156.69,451.02 -11.21,25.07 -22.61,46.52 -34.36,64.39 -11.67,17.83 -24.75,32.51 -39.24,44.17 -14.58,11.8 -30.72,20.19 -48.53,25.57 -17.87,5.33 -38.43,7.97 -61.86,7.97 -15.63,0 -31.08,-1.64 -46.48,-5.14 -15.31,-3.28 -26.8,-6.85 -34.64,-10.8l18.37 -80.99c20.14,7.83 39.96,11.66 59.61,11.66 26.29,0 46.81,-6.2 61.61,-18.87 14.82,-12.44 27.8,-31.81 39.07,-58.02 -31.91,-61.25 -62.53,-128.07 -91.93,-200.44 -29.36,-72.32 -55.52,-149.25 -78.34,-230.52l107.69 0c5.61,23.38 12.4,48.72 20.6,75.93 8.07,27.35 16.86,55.06 26.39,83.17 9.48,28.17 19.5,56.2 30.12,83.91 10.67,27.84 21.29,53.82 31.95,77.71 17.69,-49.6 34.33,-102.28 49.82,-158.34 15.58,-55.96 29.67,-110.05 42.42,-162.38l104.42 0z"></path> <path class="fil0" d="M7934.93 4053.28c-14.5,-22.2 -31.18,-45.71 -50.14,-70.14 -18.92,-24.56 -38.84,-48.21 -59.7,-71 -20.88,-22.93 -42.48,-44.57 -64.73,-65.18 -22.32,-20.59 -44.3,-38.42 -66.04,-53.41l0 259.73 -105.23 0 0 -578.89 105.23 0 0 238.86c18.42,-18.23 37.61,-37.88 57.66,-58.76 20.05,-21.01 39.97,-42.15 59.7,-63.57 19.78,-21.42 38.6,-42.11 56.43,-62.21 17.77,-20.01 33.9,-38.15 48.48,-54.32l126.07 0c-18.36,21.14 -37.87,43.25 -58.47,66.03 -20.6,22.78 -41.71,45.85 -63.49,68.91 -21.69,23.06 -43.57,46.13 -65.54,68.91 -22.06,22.79 -43.61,44.62 -64.72,65.22 23.38,17.68 47.22,38.43 71.38,62.17 24.25,23.6 48.03,49.03 71.46,76.06 23.43,26.89 45.75,55.06 67.27,84.32 21.42,29.26 41.02,58.29 58.88,87.27l-124.5 0z"></path> <path class="fil0" d="M8230.63 3980.69c26.76,0 46.26,-3.29 58.47,-9.62 12.3,-6.47 18.41,-17.45 18.41,-33.08 0,-14.45 -6.6,-26.4 -19.64,-35.87 -13.12,-9.48 -34.63,-19.74 -64.72,-30.86 -18.41,-6.74 -35.23,-13.85 -50.59,-21.42 -15.31,-7.38 -28.47,-16.23 -39.69,-26.2 -11.12,-10.02 -19.92,-22.28 -26.3,-36.42 -6.38,-14.13 -9.61,-31.53 -9.61,-52.18 0,-40.06 14.76,-71.79 44.3,-94.85 29.53,-23.06 69.59,-34.55 120.31,-34.55 25.62,0 50.14,2.29 73.47,6.98 23.39,4.79 40.97,9.34 52.65,13.9l-18.43 81.77c-11.11,-5.07 -25.33,-9.58 -42.56,-13.72 -17.28,-4.24 -37.33,-6.3 -60.12,-6.3 -20.64,0 -37.32,3.43 -50.17,10.44 -12.77,6.98 -19.19,17.69 -19.19,32.13 0,7.25 1.28,13.67 3.73,19.19 2.56,5.66 6.89,10.71 13,15.5 6.1,4.69 14.21,9.48 24.24,14.17 9.98,4.78 22.19,9.61 36.69,14.68 23.98,8.89 44.3,17.72 61.03,26.2 16.68,8.67 30.49,18.42 41.34,29.26 10.84,10.85 18.82,23.33 23.83,37.19 5.02,14.03 7.47,30.64 7.47,50.13 0,41.76 -15.45,73.43 -46.34,94.85 -30.9,21.42 -75.02,32.13 -132.41,32.13 -38.42,0 -69.36,-3.15 -92.74,-9.62 -23.33,-6.33 -39.78,-11.53 -49.26,-15.35l17.54 -84.41c15.04,6.11 33.05,11.89 53.91,17.5 20.88,5.56 44.68,8.43 71.38,8.43z"></path> <path class="fil0" d="M8755.26 3791.76c0,-13.85 -2,-27.03 -5.88,-39.65 -3.87,-12.53 -9.57,-23.33 -17.14,-32.55 -7.52,-9.21 -16.68,-16.31 -27.57,-21.74 -10.85,-5.32 -23.75,-7.88 -38.78,-7.88 -15.64,0 -29.27,2.83 -40.98,8.75 -11.67,5.93 -21.55,13.45 -29.66,22.93 -8.08,9.48 -14.37,20.32 -18.79,32.67 -4.46,12.22 -7.52,24.7 -9.16,37.47l187.96 0zm-293.24 45.16c0,-38.46 5.7,-72.05 17.13,-101.04 11.4,-28.94 26.58,-53.13 45.54,-72.33 18.92,-19.19 40.66,-33.63 65.13,-43.38 24.52,-9.76 49.58,-14.54 75.2,-14.54 60.15,0 107.06,18.63 140.74,55.88 33.72,37.32 50.54,93.05 50.54,167.07 0,5.6 -0.14,11.77 -0.41,18.82 -0.27,6.98 -0.69,13.32 -1.23,18.78l-288.26 0c2.81,35.14 15.16,62.17 37.23,81.41 21.96,19.22 53.87,28.84 95.61,28.84 24.52,0 46.95,-2.19 67.27,-6.61 20.34,-4.51 36.28,-9.21 48.04,-14.26l13.32 82.63c-5.57,2.92 -13.18,5.79 -22.94,8.8 -9.75,3.14 -20.87,5.87 -33.4,8.38 -12.57,2.45 -26.02,4.65 -40.52,6.29 -14.49,1.64 -29.21,2.51 -44.25,2.51 -38.47,0 -71.88,-5.79 -100.31,-17.18 -28.35,-11.4 -51.73,-27.17 -70.14,-47.49 -18.37,-20.47 -32,-44.36 -40.93,-71.98 -8.89,-27.57 -13.36,-57.78 -13.36,-90.6z"></path> <path class="fil0" d="M8946.55 3630.59c19.51,-5.46 44.85,-10.84 75.98,-15.94 31.26,-4.92 65.76,-7.39 103.64,-7.39 35.64,0 65.45,4.83 89.41,14.58 23.89,9.72 42.98,23.43 57.15,40.89 14.23,17.59 24.25,38.73 30.09,63.58 5.88,24.7 8.79,51.86 8.79,81.39l0 245.56 -101.04 0 0 -229.65c0,-23.47 -1.59,-43.39 -4.6,-59.71 -3.1,-16.49 -8.11,-29.8 -15.04,-40.1 -6.98,-10.31 -16.46,-17.83 -28.43,-22.66 -11.99,-4.64 -26.63,-6.96 -43.85,-6.96 -12.86,0 -26.16,0.81 -40.12,2.45 -13.9,1.64 -24.19,3.06 -30.85,4.11l0 352.52 -101.13 0 0 -422.67z"></path> <path class="fil0" d="M9520.41 4053.3l-101.13 0 0 -436.84 101.13 0 0 436.84zm10.83 -564.64c0,18.92 -6.09,33.91 -18.35,44.99 -12.22,11.12 -26.72,16.76 -43.49,16.76 -17.22,0 -31.99,-5.64 -44.25,-16.76 -12.22,-11.08 -18.37,-26.07 -18.37,-44.99 0,-19.51 6.15,-34.91 18.37,-46.03 12.26,-11.07 27.03,-16.72 44.25,-16.72 16.77,0 31.27,5.65 43.49,16.72 12.26,11.12 18.35,26.52 18.35,46.03z"></path> <path class="fil0" d="M9785.98 3982.34c31.23,0 54.83,-1.64 71.06,-5.1l0 -111.84c-5.65,-1.7 -13.67,-3.34 -24.25,-5.11 -10.57,-1.64 -22.29,-2.47 -35.09,-2.47 -11.16,0 -22.43,0.83 -33.82,2.47 -11.43,1.77 -21.73,4.78 -30.94,9.16 -9.16,4.56 -16.55,10.75 -22.11,18.86 -5.55,8.08 -8.38,18.23 -8.38,30.4 0,24.07 7.56,40.53 22.61,49.73 14.98,9.21 35.32,13.9 60.92,13.9zm-8.29 -376.72c33.37,0 61.48,4.09 84.36,12.48 22.79,8.38 41.02,20.05 54.69,35 13.63,15.09 23.38,33.4 29.22,54.82 5.88,21.39 8.84,44.99 8.84,70.52l0 264.84c-15.67,3.28 -39.24,7.43 -70.64,12.12 -31.45,4.79 -66.95,7.11 -106.47,7.11 -26.25,0 -50.18,-2.51 -71.87,-7.57 -21.69,-4.97 -40.24,-13.03 -55.55,-24.19 -15.36,-11.09 -27.31,-25.62 -35.97,-43.49 -8.56,-17.69 -12.89,-39.83 -12.89,-65.9 0,-25.11 4.87,-46.26 14.62,-63.54 9.76,-17.31 22.93,-31.3 39.65,-42.15 16.69,-10.89 36.06,-18.64 58.11,-23.33 21.92,-4.8 44.95,-7.16 68.91,-7.16 11.12,0 22.79,0.69 35.05,2.05 12.22,1.37 25.35,3.74 39.29,7.16l0 -16.73c0,-11.72 -1.46,-22.79 -4.19,-33.41 -2.83,-10.53 -7.71,-19.87 -14.64,-27.98 -6.97,-8.11 -16.17,-14.4 -27.56,-18.82 -11.4,-4.56 -25.75,-6.71 -42.99,-6.71 -23.42,0 -44.89,1.64 -64.4,5.07 -19.51,3.28 -35.36,7.15 -47.58,11.66l-12.53 -81.8c12.82,-4.56 31.5,-8.89 56.02,-13.45 24.47,-4.42 50.63,-6.6 78.52,-6.6z"></path> <path class="fil0" d="M10348.22 3792.74l0 176.1c11.67,1.28 24.25,2.09 37.61,2.65 13.31,0.54 25.66,0.77 36.73,0.77 21.74,0 41.97,-1.33 60.57,-4.2 18.63,-2.77 34.82,-7.55 48.4,-14.58 13.67,-6.97 24.57,-16.32 32.63,-27.99 8.06,-11.7 12.08,-26.79 12.08,-45.16 0,-32.81 -11.93,-55.6 -35.87,-68.5 -23.97,-12.76 -57.11,-19.09 -99.4,-19.09l-92.75 0zm0 -82.77l74.34 0c40.11,0 71.59,-5.6 94.38,-17.19 22.88,-11.38 34.28,-31.84 34.28,-61.34 0,-27.89 -11.85,-47.67 -35.5,-59.33 -23.71,-11.67 -54.47,-17.6 -92.34,-17.6 -16.13,0 -30.48,0.27 -42.98,0.87 -12.53,0.68 -23.24,1.51 -32.18,2.59l0 152zm71.06 350.03c-30.67,0 -61.58,-0.92 -92.75,-2.98 -31.21,-1.95 -58.47,-5.91 -81.86,-12.11l0 -562.18c12.17,-2.18 25.3,-4.29 39.25,-6.29 13.94,-1.91 28.11,-3.46 42.61,-4.56 14.5,-1.05 28.85,-1.91 42.98,-2.45 14.17,-0.51 27.71,-0.83 40.57,-0.83 35.09,0 67.63,2.6 97.67,7.84 30.11,5.34 56.14,14.13 78.1,26.34 22.07,12.22 39.11,28.44 51.46,48.45 12.17,20.1 18.37,44.94 18.37,74.43 0,27.2 -6.56,50.63 -19.65,70.13 -13.12,19.51 -31.35,35.05 -54.77,46.68 35.17,11.8 61.03,28.98 77.7,51.91 16.77,22.79 25.07,51.77 25.07,86.87 0,59.61 -21.69,104.23 -65.18,134.03 -43.43,29.77 -109.93,44.72 -199.57,44.72z"></path> <path class="fil0" d="M11063.28 3834.48c0,-43.52 -9.34,-77.84 -27.93,-103.28 -18.64,-25.19 -44.75,-38 -78.12,-38 -33.45,0 -59.47,12.81 -78.11,38 -18.7,25.44 -27.99,59.76 -27.99,103.28 0,43.94 9.29,78.81 27.99,104.32 18.64,25.71 44.66,38.42 78.11,38.42 33.37,0 59.48,-12.71 78.12,-38.42 18.59,-25.51 27.93,-60.38 27.93,-104.32zm103.56 0c0,34.46 -4.98,65.86 -15.05,94.3 -9.98,28.39 -24.2,52.73 -42.52,72.74 -18.41,20.05 -40.57,35.54 -66.45,46.67 -25.88,11.3 -54.46,16.82 -85.59,16.82 -31.27,0 -59.66,-5.52 -85.23,-16.82 -25.66,-11.13 -47.58,-26.62 -66.03,-46.67 -18.37,-20.01 -32.69,-44.35 -43.03,-72.74 -10.25,-28.44 -15.45,-59.84 -15.45,-94.3 0,-34.64 5.2,-65.9 15.45,-94.01 10.34,-28.22 24.79,-52.2 43.48,-72.25 18.64,-20.05 40.79,-35.59 66.44,-46.39 25.62,-10.85 53.7,-16.19 84.37,-16.19 30.63,0 58.88,5.34 84.77,16.19 25.89,10.8 48.03,26.34 66.35,46.39 18.43,20.05 32.78,44.03 43.08,72.25 10.25,28.11 15.41,59.37 15.41,94.01z"></path> <path class="fil0" d="M11503.46 3707.46c-8.39,-2.74 -19.91,-5.74 -34.64,-8.75 -14.86,-3.06 -31.95,-4.56 -51.46,-4.56 -11.11,0 -22.97,1.1 -35.45,3.28 -12.53,2.24 -21.29,4.15 -26.3,5.79l0 350.07 -101.08 0 0 -415.97c19.51,-7.25 43.84,-14.13 73.1,-20.42 29.22,-6.48 61.62,-9.62 97.31,-9.62 6.7,0 14.49,0.42 23.33,1.19 8.94,0.87 17.86,1.95 26.8,3.28 8.89,1.41 17.5,3.23 25.84,5.15 8.39,1.92 15.04,3.69 20.1,5.33l-17.55 85.23z"></path> <path class="fil0" d="M11865.98 3834.48c0,-43.52 -9.34,-77.84 -27.94,-103.28 -18.65,-25.19 -44.76,-38 -78.11,-38 -33.46,0 -59.44,12.81 -78.12,38 -18.65,25.44 -27.99,59.76 -27.99,103.28 0,43.94 9.34,78.81 27.99,104.32 18.68,25.71 44.66,38.42 78.12,38.42 33.35,0 59.46,-12.71 78.11,-38.42 18.6,-25.51 27.94,-60.38 27.94,-104.32zm103.55 0c0,34.46 -4.98,65.86 -15,94.3 -10.03,28.39 -24.25,52.73 -42.57,72.74 -18.41,20.05 -40.55,35.54 -66.44,46.67 -25.89,11.3 -54.47,16.82 -85.59,16.82 -31.23,0 -59.66,-5.52 -85.23,-16.82 -25.67,-11.13 -47.58,-26.62 -66,-46.67 -18.41,-20.01 -32.73,-44.35 -43.02,-72.74 -10.3,-28.44 -15.46,-59.84 -15.46,-94.3 0,-34.64 5.16,-65.9 15.46,-94.01 10.29,-28.22 24.75,-52.2 43.43,-72.25 18.64,-20.05 40.8,-35.59 66.46,-46.39 25.6,-10.85 53.67,-16.19 84.36,-16.19 30.62,0 58.87,5.34 84.76,16.19 25.89,10.8 48.04,26.34 66.36,46.39 18.45,20.05 32.77,44.03 43.06,72.25 10.31,28.11 15.42,59.37 15.42,94.01z"></path> <path class="fil0" d="M12136.62 3833.64c0,44.53 10.58,79.49 31.77,104.77 21.15,25.35 50.41,38.02 87.68,38.02 16.23,0 29.91,-0.68 41.39,-2.05 11.4,-1.37 20.69,-2.92 27.93,-4.56l0 -250.67c-8.88,-6.15 -20.68,-11.79 -35.5,-17.18 -14.76,-5.19 -30.49,-7.83 -47.16,-7.83 -36.79,0 -63.59,12.53 -80.63,37.5 -16.95,25.12 -25.48,59.07 -25.48,102zm289.87 206.32c-20.02,6.07 -45.22,11.66 -75.57,16.64 -30.4,5.06 -62.25,7.57 -95.66,7.57 -34.55,0 -65.45,-5.25 -92.75,-15.96 -27.26,-10.53 -50.54,-25.65 -69.74,-45.43 -19.22,-19.78 -33.99,-43.81 -44.3,-71.79 -10.24,-28.12 -15.4,-59.76 -15.4,-94.84 0,-34.64 4.29,-65.96 12.95,-94.07 8.57,-28.03 21.28,-52.14 37.96,-72.24 16.78,-20 37.06,-35.54 61.03,-46.35 23.97,-10.9 51.45,-16.22 82.72,-16.22 21.14,0 39.79,2.46 55.96,7.38 16.1,5.1 30.04,10.76 41.7,16.77l0 -209.6 101.1 -16.77 0 634.91z"></path> <path class="fil0" d="M12640.41 4053.3l-101.13 0 0 -436.84 101.13 0 0 436.84zm10.82 -564.64c0,18.92 -6.11,33.91 -18.37,44.99 -12.23,11.12 -26.71,16.76 -43.44,16.76 -17.23,0 -32.04,-5.64 -44.3,-16.76 -12.22,-11.08 -18.37,-26.07 -18.37,-44.99 0,-19.51 6.15,-34.91 18.37,-46.03 12.26,-11.07 27.07,-16.72 44.3,-16.72 16.73,0 31.21,5.65 43.44,16.72 12.26,11.12 18.37,26.52 18.37,46.03z"></path> <path class="fil0" d="M12752.29 3630.59c19.51,-5.46 44.81,-10.84 75.98,-15.94 31.26,-4.92 65.72,-7.39 103.64,-7.39 35.64,0 65.44,4.83 89.37,14.58 23.89,9.72 42.98,23.43 57.15,40.89 14.27,17.59 24.25,38.73 30.08,63.58 5.93,24.7 8.8,51.86 8.8,81.39l0 245.56 -101.04 0 0 -229.65c0,-23.47 -1.55,-43.39 -4.6,-59.71 -3.1,-16.49 -8.08,-29.8 -15.04,-40.1 -6.98,-10.31 -16.46,-17.83 -28.4,-22.66 -11.98,-4.64 -26.66,-6.96 -43.89,-6.96 -12.81,0 -26.11,0.81 -40.05,2.45 -13.96,1.64 -24.25,3.06 -30.91,4.11l0 352.52 -101.09 0 0 -422.67z"></path> <path class="fil0" d="M13377.94 3982.34c31.26,0 54.86,-1.64 71.09,-5.1l0 -111.84c-5.64,-1.7 -13.67,-3.34 -24.29,-5.11 -10.53,-1.64 -22.28,-2.47 -35.05,-2.47 -11.16,0 -22.41,0.83 -33.81,2.47 -11.48,1.77 -21.79,4.78 -30.99,9.16 -9.12,4.56 -16.5,10.75 -22.06,18.86 -5.61,8.08 -8.43,18.23 -8.43,30.4 0,24.07 7.56,40.53 22.6,49.73 15.05,9.21 35.32,13.9 60.94,13.9zm-8.3 -376.72c33.36,0 61.52,4.09 84.36,12.48 22.79,8.38 41.02,20.05 54.69,35 13.68,15.09 23.44,33.4 29.26,54.82 5.84,21.39 8.8,44.99 8.8,70.52l0 264.84c-15.68,3.28 -39.2,7.43 -70.64,12.12 -31.45,4.79 -66.91,7.11 -106.47,7.11 -26.2,0 -50.17,-2.51 -71.87,-7.57 -21.65,-4.97 -40.24,-13.03 -55.56,-24.19 -15.31,-11.09 -27.3,-25.62 -35.95,-43.49 -8.57,-17.69 -12.9,-39.83 -12.9,-65.9 0,-25.11 4.92,-46.26 14.63,-63.54 9.75,-17.31 22.92,-31.3 39.7,-42.15 16.68,-10.89 36.04,-18.64 58.06,-23.33 21.92,-4.8 44.93,-7.16 68.91,-7.16 11.12,0 22.79,0.69 35.05,2.05 12.26,1.37 25.38,3.74 39.32,7.16l0 -16.73c0,-11.72 -1.5,-22.79 -4.18,-33.41 -2.87,-10.53 -7.7,-19.87 -14.68,-27.98 -6.98,-8.11 -16.18,-14.4 -27.57,-18.82 -11.39,-4.56 -25.71,-6.71 -42.94,-6.71 -23.43,0 -44.94,1.64 -64.39,5.07 -19.51,3.28 -35.37,7.15 -47.58,11.66l-12.59 -81.8c12.81,-4.56 31.54,-8.89 56.02,-13.45 24.52,-4.42 50.68,-6.6 78.52,-6.6z"></path> <path class="fil0" d="M2475.77 319.66l90.97 -4.81c9.09,-0.48 17.84,3.54 23.4,10.76l55.53 72.21c13.98,18.18 42.74,12.43 48.67,-9.73l23.53 -88c2.35,-8.79 8.88,-15.87 17.46,-18.92l85.84 -30.51c21.61,-7.67 25.03,-36.8 5.79,-49.28l-76.42 -49.58c-7.64,-4.95 -12.35,-13.35 -12.6,-22.46l-2.49 -91.05c-0.63,-22.93 -27.27,-35.19 -45.09,-20.75l-70.76 57.37c-7.07,5.73 -16.52,7.62 -25.25,5.04l-87.37 -25.77c-22,-6.49 -41.89,15.06 -33.66,36.47l32.69 85.02c3.26,8.5 2.14,18.07 -3.01,25.58l-51.51 75.13c-12.97,18.92 1.38,44.49 24.28,43.28z"></path> <path class="fil0" d="M3786.4 4276.69c3.1,11.42 7.27,19.89 11.97,26.42 -126.39,-51.44 -255.89,-96.04 -388.21,-130.89l-49.93 -13.84 -50.48 -11.86c-29.29,-6.76 -58.56,-13.68 -88.01,-19.85 4.38,-4.06 8.75,-8.12 13.01,-12.42 27.37,-27.48 5.29,-118.31 -7.52,-171.62 -4.5,-18.62 -13.56,-45.4 -21.95,-76.74 0.34,-0.17 0.71,-0.28 1.07,-0.41 1.59,-3.73 3.22,-8.07 4.89,-12.32 30.03,4.65 60.08,9.51 90.07,14.35 38.75,6.61 77.18,14.92 115.81,22.24 6.77,1.32 51.12,10.07 57.89,11.43 6.76,1.35 50.8,11.61 57.57,13 23.18,5.33 87.76,20.54 110.83,26.46 25.31,6.53 91.58,24.31 116.77,31.51 29.16,7.91 58.08,16.74 86.97,25.66 2.5,6.16 4.77,12.14 6.48,17.82 5.21,129.26 -44.44,218.82 -67.23,261.06zm-1790.48 -156.98c15.96,-36.17 20.54,-86.22 -0.11,-113.9 -64.81,-9.71 -115.98,-1.67 -135.79,-10.91 -2.63,-1.23 -6.57,-3.57 -11.46,-6.88 6.56,-10.22 14.48,-26.69 23.07,-55.25 2.83,-9.51 11.35,-31.24 23.51,-61.04 370.52,-67.07 780.25,-84.1 1125.49,-43.08 -0.99,30.4 -2.78,59.99 -5.57,88.05 -16.46,69.17 -34.97,120.65 -50.96,167.05 -368.32,-46.71 -762.34,-4.27 -968.18,35.96zm39.35 -1306.7c-29.69,3.02 -59.32,6.48 -88.84,10.73 -56.69,7.41 -113.58,13.17 -170,21.85l-41.1 6.88c-72.24,-17.43 -134.99,-24.35 -180.22,-26.81 13.41,-65.77 22.44,-133.28 28.09,-190.89 7.12,1.19 14.61,1.99 22.64,1.99 14.68,0 34.34,-8.07 56.18,-23.07 13.8,8.91 28.08,19.82 37.71,31.7 32.58,40.23 58.88,64.94 104.63,83.59 85.21,35.93 171.99,65.17 230.91,84.03zm893.34 43.64c112.83,8.2 225.89,13.6 338.17,28.13 32.5,3.06 64.93,6.64 97.3,10.49 -165.73,79.78 -276.73,165.75 -327.49,226.94 -296.08,-23.59 -581.84,-23.12 -878,2.03 -0.27,-19.7 -2.45,-39.47 -7.55,-58.13 -93.38,-82.04 -191.96,-136.3 -284.02,-172.3 28.72,-3.35 57.49,-6.37 86.33,-9.11 53.35,-6.85 106.86,-11.62 160.45,-15.68 15,20.73 38.39,39.63 72.6,48.06 22.24,18.66 46.51,42.97 49.26,48.45 23.83,5.3 47.42,-19.41 19.41,-71.09 19.26,-8.67 27.13,-9.11 66.96,-18.57 53.82,7.39 171.15,12.73 189.57,-26.46l97.59 -2.15 149.91 3.3c56.53,1.79 113.15,0.91 169.51,6.09zm1543.46 133.71c15.72,36.57 4.34,80.89 -7.68,98.23 -1.12,1.55 -2.27,3.73 -3.42,5.89 -41.3,-14.37 -82.79,-28.25 -124.41,-41.66 1.79,-75.79 -10.42,-162.19 -43.52,-256.8 -17.14,-49.05 -37.95,-97.99 -60.47,-147.96 20.21,18.54 34.77,32.22 38.95,36.52 18.37,19.1 62.42,96.64 80.44,133.56 18.06,36.95 104.4,135.62 120.11,172.22zm-1184.92 546.55c39.22,5.81 78.45,12.05 117.63,18.5 37.72,6.41 75.28,13.84 112.88,21.08 70.77,75.83 232.21,248.62 304.62,372.19 -91.38,-31.4 -183.84,-59.76 -277.61,-83.54l-28.93 -7.76 -28.99 -7.37 -1.12 -0.23 -55.23 -12.58c-0.59,-0.16 -4.06,-0.96 -4.69,-1.07 -36.48,-8.15 -72.92,-16.71 -109.73,-23.56 -2.14,-0.39 -7.95,-1.46 -10.1,-1.86 -15.31,-2.78 -49.01,-8.76 -75.7,-13.49 21.24,-70.18 43.59,-167.3 56.97,-260.31zm-1535.02 29.92c-11.78,71.81 -34.69,152.41 -35.93,174.97 -0.84,14.57 -3.1,38.74 -8.55,68.91 -18.42,-50.22 -33.94,-138.13 -45.44,-226.49 30,-5.81 59.92,-11.74 89.92,-17.39zm-80.6 -316.6c8.99,-1.55 18.02,-3.02 27.05,-4.58 41.54,9.83 73.52,16.48 88.12,19.14 -4.26,11.18 -31.87,147.72 -27.93,223.15 0.31,6.28 0.24,13.16 -0.08,20.37 -22.48,4.58 -44.87,9.46 -67.27,14.43 -5.18,1.2 -28.14,6.22 -35.73,7.92 -8.48,-74.82 -13.97,-144.17 -15.67,-183.67 0,0 6.08,-64.45 5.45,-91.95 8.67,-1.59 17.34,-3.26 26.06,-4.81zm1764.49 248.21c2.14,2.39 3.94,4.3 5.89,6.44 -8.99,-1.7 -17.95,-3.7 -26.98,-5.21 -1.43,-0.31 -10.26,-1.83 -11.66,-2.11 -12.4,-2.22 -79.37,-13.72 -109.01,-18.89 2.51,-25.18 4.3,-49.61 4.87,-72.36 26.69,-11.54 68.82,-22.32 119.55,-33.15 -0.8,2.24 -1.61,4.5 -2.24,6.72 -9.11,30.24 -1.35,94.89 19.58,118.56zm-1096.56 -323.92c230.67,-9.79 434.95,-7.91 665.1,8.36 -9.03,45.23 -5.6,112.06 -5.6,112.06 -2.91,13.41 1.78,69.47 7.63,146.69 -338.64,-30.11 -606.47,-24.87 -942.68,16.63 33.3,-86.73 57.6,-157.98 58.04,-183.48 9.87,-10.26 23.72,-44.76 31.32,-87.21 62.02,-5.05 124.12,-8.87 186.19,-13.05zm-415.31 626.95c33.7,-81.08 75.51,-180.58 114.54,-278.73 336.45,-37.66 639.36,-46.1 972.51,-17.86 5.53,79.37 10.63,171.91 10.47,261.54 -449.76,-50.44 -873.78,-6.4 -1097.52,35.05zm2225.54 -412.87c31.92,9.38 63.59,19.45 95.49,28.84 49.21,14.36 97.63,31.16 146.21,47.51 193.62,65 383.95,141.19 566.59,234.21 -175.83,-105.91 -364.57,-189.02 -555.78,-264.02 -64.48,-24.5 -129.49,-47.78 -194.94,-69.85 1.36,-0.64 2.79,-1.27 4.14,-1.95 81.64,-40.18 131.93,-158.22 126.79,-268.19 30.52,9.15 60.88,18.74 91.51,27.69 5.13,1.48 10.18,3.22 15.28,4.78 -9.47,19.49 -21.29,40.37 -37.4,51.15 0,0 -9.19,7.05 -17.35,11.35 -3.22,1.7 -5.17,5.13 -5.09,8.78 0.36,12.14 8,30.08 37.99,30.65 36.28,0.63 67.79,-57.73 93.02,-57.26 18.3,0.32 57.4,51.37 74.87,78.61 17.99,28.1 48.49,24.56 68.07,10.47 4.86,-3.5 5.81,-10.34 1.95,-14.95 -11.14,-13.3 -34.01,-41.46 -47.58,-63.7 5.73,1.94 11.46,3.94 17.19,5.89 14.2,13.13 31.74,28.68 46.7,37.43 27.97,16.32 40.93,10.9 59.91,0.33 164.71,60.34 326.47,129.13 482.86,209.61 -146.21,-87.56 -300.52,-160.65 -457.94,-226.41 1.54,-3.26 2.06,-6.61 0.99,-9.63 0,0 -15.24,-29.43 -21.41,-47.5 -1.51,-4.34 -3.93,-8.2 -7.24,-11.38 -9.58,-9.27 -31.35,-29 -60.59,-47.42 -26.66,-16.82 -60.15,-103 -71.01,-150.06 -10.83,-47.03 -75.67,-250.36 -146.37,-316.56 -43.72,-40.95 -102.71,-129.82 -142.94,-194.39 9.98,-13.56 14.87,-23.07 16.04,-25.54 4.33,-9.15 -7.17,-22.76 -38.75,-46.3 -30.05,-296.83 -188.94,-305.27 -256.05,-297.59 -34.26,-8.04 -63.51,-7.92 -70.62,-10.31 -18.9,-6.32 -30.24,-22.71 -31.99,-50.44 18.34,-35.52 -2.03,-53.59 -23.67,-61.98 8.55,-49.02 14.75,-91.07 92.5,-133.6 66.91,47.26 156.95,54.94 204.81,50.04 -31.59,22.13 -60.6,33.95 -78.82,77.07 -34.01,80.48 118.51,148.59 172.43,121.62 34.49,-17.22 20.4,-120.07 12.72,-187.1 44.08,-0.96 52.68,171.47 196.81,119.86 -70.37,-40.38 23.52,-170.63 -144.13,-166.77 25.02,2.74 129.73,-47.07 105.11,-115.37 -21.09,-58.41 -91.7,-86.77 -133.19,-78.13 -50.85,10.57 -54.75,85.73 -68.64,155.15 -123.01,-20.29 -176.24,-129.29 -182.96,-230.82 -4.06,-61.59 17.22,-491.38 -406.2,-510.52 -147.11,-6.64 -323.04,75.04 -377.3,158.51 -105.91,10.98 -125.28,87.68 -116.69,145.92 7,47.38 6.69,75.87 -20.29,97.83 0,0 11.15,16.86 64.53,26.21 16.31,47.27 56.81,119.44 46.31,150.71 -15.28,45.43 -45.55,57.25 -78.46,78.21 8.32,29.13 29.32,50.13 56.53,54.51 6.41,9.39 -4.53,31.5 -16.98,53.03 11.14,28.25 38.2,29.09 71.17,23.23 -8.95,4.5 -46.19,45.12 -25.86,54.27 10.42,4.66 29.8,8.12 31.98,18.7 2.19,10.62 -7.87,58.32 33.51,84.7 11.46,7.28 27.53,11.02 45.08,12.53 -0.13,0.32 -0.24,0.68 -0.37,1.04 1.72,-0.16 3.47,-0.41 5.21,-0.52 30.64,1.83 64.94,-3.35 89.2,-10.75 28.64,-2.94 52.75,-2.78 67.43,6.85 -17.94,13.93 -23.38,39.63 -11.22,59.99 7.73,12.85 18.59,25.94 30.99,39.98 -51.67,5.81 -114.81,43.8 -196.4,146.97 -29.92,10.3 -54.99,-11.86 -49.29,34.33 2.78,22.67 7.47,44.64 13.52,65.64 -53.67,64.01 -139.56,160.89 -202.7,204.7 -110.12,-47.91 -269.18,-90.96 -310.27,-113.56 -12.89,-7.11 1.71,-17.69 -20.21,-57.87 -21.88,-40.19 -26.14,-108.09 -36.49,-131.73 -24.82,-13.49 -49.76,65.56 -42.57,106.78 7.21,41.21 -149.18,-59.2 -169.68,-66.44 -20.48,-7.28 -41.45,-14.96 -51.15,1.79 9.7,27.13 43.44,62.18 43.44,62.18 0,0 -101.81,-44.6 -120.54,-3.06 9.5,18.02 22.87,21.37 22.87,21.37 0,0 -43.05,-14.09 -55.81,16.74 0,18.86 81.35,45.39 132.63,71.93 -70.37,-5.85 -70.53,33.74 -70.53,33.74 31.02,9.15 60.55,11.13 106.58,27.56 32.98,11.79 75.23,41.9 148.71,39.4 24.67,-0.88 49.13,2.39 71.61,12.57 110.6,50.13 271.96,174.37 386.62,174.37 79.41,0 212.33,-110.48 296.39,-188.58 10.74,14.01 20.21,25.07 25.62,28.33 4.89,2.94 14.56,-3.42 26.22,-14.45 18.9,35.7 41.85,73.01 69.74,110.72 14.08,19.11 -5.92,41.02 7.55,74.72 8.2,20.53 53.24,21.21 56.5,28.29 -68.03,20.24 -130.93,42.64 -188.85,66.15l-23.56 -3.89c-56.48,-8.71 -113.34,-14.48 -170.04,-21.84 -113.22,-16.35 -227.51,-21.53 -341.46,-30.6 -56.96,-5.41 -114.17,-4.85 -171.3,-6.88l-130.3 -3.42 0 -1.03 -41.13 -0.05 0 1.12 -83.32 2.19c8.88,-5.13 11.66,-20.37 -1.1,-22 -29.16,-3.7 -54.31,-12.61 -54.31,-12.61 4.37,-3.75 5.88,-10.39 2.86,-12.1 -5.6,-3.18 -21.56,-12.81 -38.07,-19.41 -18.54,-7.44 -30.68,-6.97 -51.48,-6.97 -23.08,0 -71.45,7.16 -115.29,11.46 -31.11,-4.65 -39.99,-16.67 -46.39,-21.96 -142.14,-117.32 -281.4,-170.79 -332.47,-205.4 -3.19,-2.19 -5.97,-4.66 -8.48,-7.61 -26.13,-30.59 -40.34,-67.55 -40.34,-67.55 0,0 75.91,-82.94 -5.49,-120.3 -37.51,-82.24 -38.67,-116.41 -81.52,-157.07 -28.48,-27.01 -52.23,-40.61 -71.73,-47.22 7.4,-11.85 23.72,-39.3 30.56,-62.62 1.51,-5.01 -0.68,-10.5 -5.13,-13.24 -20.98,-12.89 -74.08,-34.3 -117.28,-49.66 5.29,-27.6 15.19,-51.79 17.45,-54.34 36.22,-41.14 155.56,-22.45 230.2,-33.98 52.67,-8.11 71.37,-67.99 49.33,-117.8 -2.1,-4.78 1.91,-10.06 6.73,-16.75 23.15,-18.78 20.68,-46.67 2.66,-52.71 7.03,-6.17 27.81,-46.35 15.31,-58.72 -17.86,-6.13 -31.98,-40.91 -19.77,-50.1 12.17,-9.18 32.9,-48.09 21.05,-70.41 -54.27,-12.97 -89.64,-52.08 -90.03,-72.01 -0.4,-19.93 -0.64,-101.73 -0.64,-101.73 0,0 29.72,-6.44 40.7,-33.42 -59.12,-27.6 -76.35,-251.03 -399.63,-251.03 -413.39,0 -391.2,217.86 -391.2,217.86 -258.23,80.25 -132.47,371.18 -108.8,448.8 15.03,49.17 17.94,158.02 -40.22,158.02 24.42,58.92 114.1,43.2 151.57,27.33 -1.15,18.14 -18.69,36.96 -37.28,45.87 0,0 68.15,42.49 173.22,-49.09 7.08,-6.17 16.71,0.28 22.05,7.84 13.32,19.01 18.73,45.75 18.54,75.98 -40.15,6.77 -74,20.42 -58.85,58.28 4.38,10.91 6.69,20.42 7.6,28.89 -30.55,4.02 -61.39,13.92 -87.13,34.41 -85.05,67.63 -172.14,133.64 -184.99,145.89 -109.37,14.4 -61.39,116.53 -61.39,116.53 -117.79,174.25 -167.61,344.77 -167.61,379.25 14.45,41.03 79.81,96.68 183.53,125.93 -4.74,17.06 1.78,40.85 33.73,61.54 -3.18,14.68 -5.76,28.53 -6.84,40.42 -2.23,25.34 -1.67,48.1 1.47,68.91 -91.89,29.48 -183.04,61.18 -273.35,94.95 -212.48,82.41 -422.47,173.55 -617.93,290.59 202.26,-104.15 413.55,-188.85 628.59,-260.86 53.83,-17.99 107.29,-36.72 161.8,-52.36 37.12,-10.81 73.96,-22.68 111.03,-33.49 16.43,44.76 48.62,79.6 97.64,111.07 52.95,34.02 154.04,74.6 223.15,99.62 -136.7,39.27 -271.49,84.86 -404.29,135.26 -191.2,74.96 -379.94,158.11 -555.77,263.94 177.26,-90.31 361.75,-164.75 549.48,-228.56 6.89,-2.31 13.73,-4.66 20.62,-6.97 48.73,-16.31 97.26,-33.13 146.64,-47.5 49.24,-14.53 98.03,-30.71 147.8,-43.33 8.51,-2.38 140.23,-37.39 148.82,-39.54 1.67,-0.44 10.19,-2.43 21.61,-5.09 9.19,13.92 26.77,38.87 28.96,44.47 -4.85,28.96 -21.44,114.27 36.8,234.53 -116.61,34.65 -231.71,74.08 -344.96,117.88 -169.88,67.55 -337.41,142.62 -493.64,237.27 159.41,-80.17 324.87,-146.6 493.15,-203.85 6.17,-2.1 12.31,-4.21 18.46,-6.29 43.69,-14.72 87.29,-29.6 131.45,-42.65 44.12,-13.2 87.93,-27.37 132.52,-38.94 10.34,-2.94 50.93,-13.77 85.07,-22.84 9.58,16.2 20.13,32.71 32.58,49.89 90.94,125.48 100.13,186.62 99.5,212.45 -101.09,30.95 -200.95,65.91 -299.1,104.79 -148.59,60.11 -294.88,127.15 -431.46,210.66 141.47,-70.02 287.95,-128.55 436.75,-179.23 5.44,-1.88 10.9,-3.75 16.35,-5.58 38.64,-13.09 77.26,-26.01 116.25,-37.83 38.98,-11.9 77.85,-23.99 117.2,-34.57 8,-2.27 20.26,-5.61 33.82,-9.23 -7.16,26.38 -15.15,60.35 -10.43,81.6 7.49,33.26 23.2,66.75 78.22,78.37 15.2,3.19 29.48,6.73 43.25,10.54 -9.24,41.93 -16.71,80.65 -21.53,108.06 -60.11,20.73 -119.66,43.05 -178.43,67.03 -127.31,52.71 -252.31,111.67 -369.31,184 123.65,-59.83 251.03,-110.4 380.41,-154.52 53.47,-18.54 107.41,-35.57 161.6,-51.68 -1.43,46.58 19.01,77.9 101.69,82.87 99.81,6.09 152.41,-66.95 152.81,-83.5 0.28,-12.01 -4.7,-38.15 -8.68,-59.88 10.59,2.51 20.26,4.06 27.58,3.74 15.44,-0.71 38.39,-11.93 60.59,-26.89 338.16,-63.86 676.24,-92.9 1019.9,-54.55 -1.72,5.86 -3.34,11.66 -4.85,17.51 -70.46,117.91 -95.13,139.64 -110.17,160.92 4.38,45.08 72.37,58.25 150.51,42.97 69.66,-13.65 152.33,-24.35 182.76,-149.15 3.94,-16.15 9.47,-29 15.75,-40.06 6.45,1.04 12.89,2.14 19.34,3.15 33.54,5.72 66.67,13.52 100.18,19.84l50.08 9.87 49.73 11.82c132.81,30.58 264.13,68.39 393.27,113.1 129.37,44.12 256.8,94.65 380.45,154.44 -105.15,-65.09 -216.9,-118.95 -330.88,-167.57 10.06,-1.35 17.35,-5.05 17.35,-5.05 25.46,9.43 106.61,6.49 151.13,-44.28 44.52,-50.76 70.78,-149.95 57.58,-197.32 -0.33,-1.28 -0.33,-2.27 -0.65,-3.47 125,44.88 248.14,95.44 367.61,154.53 -117.44,-71.86 -242.05,-131.42 -369.12,-185.01 3.86,-21.96 17.5,-33.21 12.73,-46.7 -6.68,-19.09 -44.19,-91.86 -58.32,-112.67 -37.79,-55.57 -39.46,-121.22 -52.99,-197.44 31.63,9.19 63.14,18.85 94.68,28.36 43.92,13.09 87.21,27.93 130.61,42.61 172.23,58.08 341.59,125.71 504.54,207.63 -156.15,-94.73 -323.68,-169.75 -493.55,-237.35 -81.12,-31.39 -163.16,-60.59 -245.99,-87.44 -14.8,-59.2 -41.18,-124.25 -98.34,-195.46 13.91,1.87 166.92,-10.5 291.76,-53.47z"></path> <path class="fil0" d="M2246.88 1658.26l111.6 73.57c11.14,7.35 17.98,19.72 18.26,33.05l2.66 133.64c0.68,33.65 39.63,51.92 65.93,30.91l104.43 -83.39c10.42,-8.35 24.31,-11.01 37.08,-7.12l127.94 38.75c32.19,9.75 61.63,-21.65 49.78,-53.15l-47.07 -125.08c-4.69,-12.53 -2.95,-26.54 4.69,-37.52l76.39 -109.68c19.25,-27.61 -1.56,-65.29 -35.17,-63.78l-133.52 6.13c-13.33,0.59 -26.14,-5.41 -34.17,-16.07l-80.72 -106.51c-20.33,-26.85 -62.58,-18.73 -71.53,13.73l-35.45 128.86c-3.54,12.85 -13.21,23.2 -25.82,27.58l-126.27 43.83c-31.79,11.02 -37.13,53.71 -9.04,72.25z"></path> <path class="fil0" d="M2768 931.66l98.27 -5.17c9.82,-0.56 19.25,3.82 25.26,11.62l59.99 77.97c15.08,19.62 46.15,13.41 52.56,-10.5l25.42 -95.05c2.54,-9.5 9.58,-17.14 18.85,-20.44l92.7 -32.94c23.36,-8.31 27.06,-39.79 6.25,-53.23l-82.52 -53.56c-8.28,-5.37 -13.33,-14.43 -13.6,-24.27l-2.7 -98.34c-0.68,-24.75 -29.45,-37.99 -48.7,-22.39l-76.43 61.93c-7.63,6.22 -17.81,8.25 -27.29,5.46l-94.37 -27.85c-23.75,-7.01 -45.23,16.27 -36.32,39.42l35.29 91.82c3.54,9.19 2.31,19.55 -3.26,27.62l-55.62 81.15c-14.01,20.41 1.48,48.07 26.22,46.75z"></path> <path class="fil0" d="M5078.85 3077.59c0,-19.05 3.1,-37.1 9.37,-54.01 6.15,-16.91 15.07,-31.7 26.8,-44.27 11.74,-12.57 25.98,-22.48 42.73,-29.86 16.78,-7.39 35.89,-11.04 57.29,-11.04 14.11,0 27.06,1.21 38.7,3.71 11.75,2.53 23.17,6.12 34.21,10.82l-15.53 59.82c-7.08,-2.68 -14.79,-5.03 -23.17,-7.02 -8.38,-2.05 -17.75,-3.04 -28.18,-3.04 -22.09,0 -38.63,6.87 -49.45,20.64 -10.89,13.72 -16.37,31.86 -16.37,54.25 0,23.78 5.09,42.28 15.31,55.3 10.21,13.03 28.12,19.59 53.55,19.59 9.07,0 18.81,-0.78 29.18,-2.53 10.37,-1.59 19.97,-4.34 28.66,-7.99l10.51 61.25c-8.7,3.73 -19.58,6.93 -32.69,9.61 -13.02,2.65 -27.43,4.1 -43.19,4.1 -24.15,0 -44.88,-3.65 -62.33,-10.88 -17.44,-7.17 -31.76,-17 -42.97,-29.42 -11.27,-12.35 -19.5,-27.03 -24.6,-43.96 -5.24,-16.91 -7.83,-35.27 -7.83,-55.07z"></path> <path class="fil0" d="M5496.1 3050.94c-0.32,-6.33 -1.44,-12.57 -3.28,-18.59 -1.83,-6.01 -4.73,-11.43 -8.53,-16.07 -3.89,-4.73 -8.77,-8.53 -14.64,-11.57 -5.85,-2.98 -13.17,-4.58 -21.85,-4.58 -8.38,0 -15.55,1.53 -21.56,4.34 -6.11,2.83 -11.05,6.63 -15.09,11.27 -4.04,4.73 -7.08,10.22 -9.29,16.39 -2.22,6.18 -3.82,12.48 -4.81,18.81l99.05 0zm-176 28.66c0,-23.48 3.68,-43.97 10.82,-61.57 7.26,-17.6 16.7,-32.22 28.42,-43.95 11.75,-11.81 25.23,-20.64 40.45,-26.67 15.33,-6.02 30.95,-9.07 47.01,-9.07 37.56,0 67.21,11.51 89,34.45 21.78,23 32.67,56.75 32.67,101.32 0,4.34 -0.15,9.14 -0.54,14.32 -0.3,5.18 -0.61,9.83 -0.99,13.78l-169.89 0c1.68,15.48 8.85,27.75 21.64,36.73 12.74,8.98 29.8,13.56 51.28,13.56 13.72,0 27.19,-1.23 40.45,-3.73 13.26,-2.59 23.99,-5.73 32.37,-9.31l10.13 60.81c-4.1,2.05 -9.44,4.04 -16.15,6 -6.7,1.99 -14.17,3.74 -22.31,5.27 -8.23,1.51 -17,2.81 -26.37,3.8 -9.44,1 -18.81,1.54 -28.18,1.54 -23.84,0 -44.49,-3.59 -62.09,-10.61 -17.6,-6.99 -32.15,-16.67 -43.73,-28.87 -11.57,-12.26 -20.12,-26.73 -25.67,-43.49 -5.49,-16.76 -8.32,-34.9 -8.32,-54.31z"></path> <path class="fil0" d="M5690.63 3057.25c-0.67,11.72 -1.36,24.53 -1.96,38.24 -0.78,13.78 -1.3,27.64 -1.84,41.59 -0.45,13.87 -0.99,27.19 -1.45,39.76 -0.54,12.57 -0.99,23.54 -1.29,33l-72.91 0c0.69,-18.44 1.75,-39.24 3.29,-62.33 1.51,-23.15 3.19,-46.68 5.03,-70.61 1.81,-23.99 3.86,-47.38 6.09,-70.16 2.14,-22.79 4.19,-43.22 6.24,-61.33l62.32 0c14.47,23.38 27.73,47.68 39.84,72.75 12.12,25.07 24.9,52.71 38.31,82.82 14.11,-32.16 27.88,-61.79 41.38,-89.06 13.41,-27.28 25.52,-49.45 36.26,-66.51l63.38 0c2.37,18.11 4.58,38.54 6.78,61.33 2.2,22.78 4.19,46.17 6.02,70.16 1.84,23.93 3.44,47.46 4.8,70.61 1.29,23.09 2.35,43.89 2.98,62.33l-74.35 0c-0.69,-26.22 -1.62,-52.26 -2.75,-78.03 -1.23,-25.89 -2.28,-50.87 -3.28,-75.04l-55.45 121.91 -51.96 0 -55.48 -121.43z"></path> <path class="fil0" d="M6152.09 3050.94c-0.38,-6.33 -1.44,-12.57 -3.28,-18.59 -1.83,-6.01 -4.73,-11.43 -8.53,-16.07 -3.88,-4.73 -8.77,-8.53 -14.64,-11.57 -5.85,-2.98 -13.17,-4.58 -21.85,-4.58 -8.38,0 -15.55,1.53 -21.55,4.34 -6.12,2.83 -11.06,6.63 -15.16,11.27 -3.98,4.73 -7.09,10.22 -9.23,16.39 -2.22,6.18 -3.82,12.48 -4.81,18.81l99.05 0zm-175.99 28.66c0,-23.48 3.67,-43.97 10.81,-61.57 7.26,-17.6 16.7,-32.22 28.42,-43.95 11.75,-11.81 25.23,-20.64 40.45,-26.67 15.33,-6.02 30.95,-9.07 47.01,-9.07 37.56,0 67.21,11.51 89,34.45 21.79,23 32.67,56.75 32.67,101.32 0,4.34 -0.15,9.14 -0.54,14.32 -0.3,5.18 -0.6,9.83 -0.99,13.78l-169.89 0c1.68,15.48 8.85,27.75 21.57,36.73 12.81,8.98 29.87,13.56 51.35,13.56 13.72,0 27.19,-1.23 40.45,-3.73 13.18,-2.59 23.99,-5.73 32.37,-9.31l10.13 60.81c-4.1,2.05 -9.44,4.04 -16.15,6 -6.7,1.99 -14.17,3.74 -22.31,5.27 -8.23,1.51 -17.06,2.81 -26.43,3.8 -9.37,1 -18.75,1.54 -28.12,1.54 -23.84,0 -44.48,-3.59 -62.17,-10.61 -17.51,-6.99 -32.07,-16.67 -43.64,-28.87 -11.58,-12.26 -20.13,-26.73 -25.68,-43.49 -5.49,-16.76 -8.31,-34.9 -8.31,-54.31z"></path> <path class="fil0" d="M6393.35 2909.21c-10.73,0 -21.03,-1.59 -30.92,-4.7 -9.91,-3.29 -18.83,-7.93 -26.91,-14.17 -7.99,-6.18 -14.62,-13.71 -19.86,-22.57 -5.19,-8.89 -8.23,-19.04 -9.31,-30.38l51.8 -13.65c2.68,12.72 7.17,21.79 13.35,27.12 6.15,5.42 13.48,8.08 21.85,8.08 8.69,0 16.16,-2.44 22.33,-7.32 6.24,-4.86 10.67,-13.93 13.41,-27.34l51.27 13.56c-1.08,11.36 -4.19,21.49 -9.31,30.41 -5.24,8.89 -11.72,16.28 -19.65,22.39 -7.84,6 -16.82,10.58 -26.88,13.87 -10.07,3.11 -20.43,4.7 -31.17,4.7zm119.62 36.2l0 264.43 -75.35 0c0,-16.76 0.16,-33.45 0.46,-50.06 0.39,-16.61 0.69,-31.92 1.06,-45.93 0.3,-14.1 0.69,-26.43 1.23,-36.95 0.51,-10.58 0.75,-18.44 0.75,-23.39 -9.67,13.71 -19.43,27.58 -29.17,41.68 -9.68,14.08 -18.98,27.88 -27.88,41.5 -8.92,13.57 -17.3,26.52 -25.14,38.94 -7.86,12.42 -14.79,23.78 -20.88,34.21l-65.82 0 0 -264.43 74.89 0c0,16.75 -0.09,32.76 -0.24,48 -0.21,15.23 -0.45,29.09 -0.75,41.44 -0.39,12.42 -0.7,23.24 -1,32.46 -0.39,9.2 -0.54,16.37 -0.54,21.31 20.13,-29.47 38.64,-55.91 55.55,-79.38 16.99,-23.45 33.45,-44.7 49.51,-63.83l63.32 0z"></path> <polygon class="fil0" points="6801.02,3209.82 6726.13,3209.82 6726.13,3105.23 6648.2,3105.23 6648.2,3209.82 6573.31,3209.82 6573.31,2945.38 6648.2,2945.38 6648.2,3043.9 6726.13,3043.9 6726.13,2945.38 6801.02,2945.38 "></polygon> <path class="fil0" d="M7205.2 3209.82l-74.89 0 0 -264.44 74.89 0 0 264.44zm-231.76 -52.26c13.71,0 24.53,-2.68 32.46,-7.78 7.86,-5.27 11.81,-13.71 11.81,-25.44 0,-6.02 -1.38,-11.14 -4.04,-15.33 -2.74,-4.19 -6.39,-7.54 -11.06,-10.04 -4.7,-2.53 -10.19,-4.28 -16.37,-5.27 -6.17,-0.99 -12.8,-1.51 -19.88,-1.51 -4.95,0 -10.52,0.3 -16.52,0.99 -6.03,0.67 -10.61,1.36 -13.57,2.05l0 60.25c3.96,0.69 9.38,1.15 16.07,1.54 6.72,0.38 13.71,0.54 21.1,0.54zm-37.17 -118.17c4.65,-1.3 10.74,-2.36 18.27,-3.28 7.56,-0.83 16.24,-1.21 25.92,-1.21 15.37,0 29.93,1.83 43.49,5.55 13.56,3.67 25.37,9.3 35.44,16.78 10.04,7.53 18.05,17.12 23.9,28.72 5.79,11.49 8.77,25.05 8.77,40.44 0,15.38 -2.66,28.73 -8.08,39.91 -5.33,11.27 -13.02,20.43 -23.08,27.73 -10.04,7.17 -22.01,12.5 -35.96,16 -13.93,3.59 -29.41,5.34 -46.47,5.34 -22.09,0 -42.43,-1.15 -60.88,-3.35 -18.42,-2.14 -37.16,-5.57 -56.29,-10.22l0 -256.42 74.97 0 0 94.01z"></path> <path class="fil0" d="M7428.86 3050.94c-0.31,-6.33 -1.45,-12.57 -3.29,-18.59 -1.83,-6.01 -4.64,-11.43 -8.53,-16.07 -3.88,-4.73 -8.76,-8.53 -14.62,-11.57 -5.81,-2.98 -13.1,-4.58 -21.79,-4.58 -8.37,0 -15.63,1.53 -21.63,4.34 -6.12,2.83 -11.06,6.63 -15.1,11.27 -4.04,4.73 -7.08,10.22 -9.28,16.39 -2.21,6.18 -3.83,12.48 -4.8,18.81l99.04 0zm-175.98 28.66c0,-23.48 3.65,-43.97 10.88,-61.57 7.17,-17.6 16.61,-32.22 28.33,-43.95 11.75,-11.81 25.23,-20.64 40.47,-26.67 15.31,-6.02 30.93,-9.07 47.08,-9.07 37.47,0 67.12,11.51 88.91,34.45 21.79,23 32.67,56.75 32.67,101.32 0,4.34 -0.15,9.14 -0.45,14.32 -0.39,5.18 -0.69,9.83 -1,13.78l-169.95 0c1.66,15.48 8.9,27.75 21.62,36.73 12.74,8.98 29.8,13.56 51.29,13.56 13.71,0 27.18,-1.23 40.44,-3.73 13.26,-2.59 24.08,-5.73 32.46,-9.31l10.04 60.81c-4.04,2.05 -9.37,4.04 -16.06,6 -6.79,1.99 -14.17,3.74 -22.4,5.27 -8.23,1.51 -16.99,2.81 -26.37,3.8 -9.43,1 -18.81,1.54 -28.18,1.54 -23.84,0 -44.48,-3.59 -62.08,-10.61 -17.6,-6.99 -32.16,-16.67 -43.73,-28.87 -11.58,-12.26 -20.11,-26.73 -25.68,-43.49 -5.48,-16.76 -8.29,-34.9 -8.29,-54.31z"></path> <path class="fil0" d="M7828.99 3079.62c0,-23.15 -5.18,-41.59 -15.61,-55.52 -10.37,-13.95 -25.74,-20.88 -46.24,-20.88 -6.63,0 -12.87,0.23 -18.59,0.75 -5.72,0.54 -10.37,1.08 -14.02,1.75l0 135.23c4.65,3.04 10.74,5.48 18.29,7.56 7.54,1.96 15.23,2.96 22.92,2.96 35.5,0 53.25,-23.93 53.25,-71.85zm76.42 -2.05c0,20.49 -2.52,39.08 -7.55,55.84 -5.01,16.76 -12.42,31.16 -22.1,43.19 -9.73,12.12 -21.78,21.49 -36.17,28.21 -14.4,6.6 -31.09,10.04 -49.82,10.04 -10.36,0 -20.12,-1 -29.11,-3.05 -9.07,-1.98 -17.83,-4.88 -26.13,-8.53l0 99.58 -74.95 0 0 -348.4c6.69,-1.96 14.47,-3.95 23.15,-5.78 8.68,-1.82 17.83,-3.44 27.34,-4.8 9.61,-1.29 19.28,-2.44 29.19,-3.28 9.89,-0.76 19.35,-1.21 28.4,-1.21 21.79,0 41.22,3.26 58.28,9.74 17.15,6.63 31.55,15.79 43.28,27.73 11.73,11.9 20.65,26.37 26.89,43.43 6.17,17.14 9.3,36.19 9.3,57.29z"></path> <path class="fil0" d="M8116.55 3050.94c-0.33,-6.33 -1.45,-12.57 -3.28,-18.59 -1.84,-6.01 -4.73,-11.43 -8.53,-16.07 -3.89,-4.73 -8.77,-8.53 -14.65,-11.57 -5.85,-2.98 -13.17,-4.58 -21.85,-4.58 -8.38,0 -15.55,1.53 -21.55,4.34 -6.11,2.83 -11.06,6.63 -15.16,11.27 -3.97,4.73 -7.02,10.22 -9.22,16.39 -2.23,6.18 -3.82,12.48 -4.82,18.81l99.06 0zm-176 28.66c0,-23.48 3.67,-43.97 10.82,-61.57 7.23,-17.6 16.69,-32.22 28.42,-43.95 11.72,-11.81 25.22,-20.64 40.44,-26.67 15.25,-6.02 30.95,-9.07 47.02,-9.07 37.55,0 67.2,11.51 88.99,34.45 21.77,23 32.67,56.75 32.67,101.32 0,4.34 -0.15,9.14 -0.54,14.32 -0.3,5.18 -0.6,9.83 -0.99,13.78l-169.89 0c1.69,15.48 8.86,27.75 21.58,36.73 12.78,8.98 29.86,13.56 51.35,13.56 13.71,0 27.19,-1.23 40.45,-3.73 13.17,-2.59 23.99,-5.73 32.37,-9.31l10.13 60.81c-4.11,2.05 -9.44,4.04 -16.16,6 -6.69,1.99 -14.16,3.74 -22.31,5.27 -8.22,1.51 -17.06,2.81 -26.43,3.8 -9.37,1 -18.74,1.54 -28.11,1.54 -23.85,0 -44.49,-3.59 -62.18,-10.61 -17.51,-6.99 -32.07,-16.67 -43.64,-28.87 -11.58,-12.26 -20.13,-26.73 -25.68,-43.49 -5.48,-16.76 -8.31,-34.9 -8.31,-54.31z"></path> <path class="fil0" d="M8224.11 3077.59c0,-19.05 3.13,-37.1 9.31,-54.01 6.16,-16.91 15.16,-31.7 26.89,-44.27 11.72,-12.57 25.98,-22.48 42.73,-29.87 16.7,-7.38 35.81,-11.03 57.29,-11.03 14.08,0 26.98,1.21 38.7,3.71 11.73,2.53 23.15,6.12 34.21,10.82l-15.61 59.82c-7.02,-2.68 -14.71,-5.03 -23.18,-7.02 -8.37,-2.05 -17.75,-3.04 -28.09,-3.04 -22.11,0 -38.63,6.87 -49.54,20.64 -10.88,13.72 -16.37,31.86 -16.37,54.25 0,23.78 5.18,42.28 15.4,55.3 10.19,13.03 28.03,19.59 53.55,19.59 8.99,0 18.73,-0.78 29.18,-2.53 10.36,-1.59 19.89,-4.34 28.63,-7.99l10.52 61.25c-8.77,3.73 -19.59,6.93 -32.67,9.61 -13.05,2.65 -27.51,4.1 -43.21,4.1 -24.15,0 -44.94,-3.65 -62.39,-10.88 -17.36,-7.17 -31.68,-17 -42.98,-29.42 -11.18,-12.35 -19.41,-27.03 -24.59,-43.96 -5.19,-16.91 -7.78,-35.27 -7.78,-55.07z"></path> <polygon class="fil0" points="8696.61,3006.71 8612.2,3006.71 8612.2,3209.82 8537.24,3209.82 8537.24,3006.71 8452.83,3006.71 8452.83,2945.38 8696.61,2945.38 "></polygon> <path class="fil0" d="M8902.74 3077.09c0,-23.08 -4.67,-41.29 -13.89,-54.55 -9.2,-13.23 -22.31,-19.86 -39.45,-19.86 -17.06,0 -30.32,6.63 -39.7,19.86 -9.37,13.26 -14.1,31.47 -14.1,54.55 0,23.17 4.73,41.44 14.1,55.09 9.38,13.56 22.64,20.34 39.7,20.34 17.14,0 30.25,-6.78 39.45,-20.34 9.22,-13.65 13.89,-31.92 13.89,-55.09zm76.4 0c0,20.73 -3.05,39.78 -9.07,57.08 -6.03,17.27 -14.77,31.98 -26.13,44.25 -11.36,12.26 -25.07,21.63 -40.99,28.35 -15.91,6.7 -33.75,10.13 -53.55,10.13 -19.42,0 -37.1,-3.43 -53.02,-10.13 -15.85,-6.72 -29.56,-16.09 -40.99,-28.35 -11.36,-12.27 -20.27,-26.98 -26.58,-44.25 -6.41,-17.3 -9.61,-36.35 -9.61,-57.08 0,-20.71 3.28,-39.69 9.83,-56.81 6.56,-17.09 15.54,-31.62 27.21,-43.73 11.48,-12.05 25.28,-21.43 41.2,-28.12 15.85,-6.72 33.21,-10.06 51.96,-10.06 19.13,0 36.64,3.34 52.56,10.06 15.94,6.69 29.56,16.07 40.99,28.12 11.35,12.11 20.27,26.64 26.58,43.73 6.41,17.12 9.61,36.1 9.61,56.81z"></path> <path class="fil0" d="M9196.26 3079.62c0,-23.15 -5.19,-41.59 -15.62,-55.52 -10.36,-13.95 -25.76,-20.88 -46.23,-20.88 -6.63,0 -12.9,0.23 -18.6,0.75 -5.63,0.54 -10.36,1.08 -14.01,1.75l0 135.23c4.64,3.04 10.73,5.48 18.27,7.56 7.62,1.96 15.24,2.96 22.93,2.96 35.5,0 53.26,-23.93 53.26,-71.85zm76.4 -2.05c0,20.49 -2.51,39.08 -7.54,55.84 -5.03,16.76 -12.42,31.16 -22.09,43.19 -9.74,12.12 -21.79,21.49 -36.19,28.21 -14.39,6.6 -30.99,10.04 -49.82,10.04 -10.37,0 -20.04,-1 -29.09,-3.05 -9.07,-1.98 -17.75,-4.88 -26.13,-8.53l0 99.58 -74.98 0 0 -348.4c6.72,-1.96 14.49,-3.95 23.17,-5.78 8.68,-1.82 17.82,-3.44 27.34,-4.8 9.61,-1.29 19.29,-2.44 29.18,-3.28 9.91,-0.76 19.43,-1.21 28.42,-1.21 21.78,0 41.22,3.26 58.28,9.74 17.15,6.63 31.53,15.79 43.28,27.73 11.72,11.9 20.71,26.37 26.88,43.43 6.18,17.14 9.29,36.19 9.29,57.29z"></path> <path class="fil0" d="M9421.47 3157.56c7.38,0 14.38,-0.16 21.1,-0.52 6.69,-0.39 12.11,-0.84 16.06,-1.54l0 -56.75c-2.95,-0.69 -7.53,-1.38 -13.56,-2.05 -6.02,-0.69 -11.51,-0.99 -16.6,-0.99 -7,0 -13.63,0.36 -19.81,1.29 -6.24,0.85 -11.66,2.36 -16.39,4.71 -4.64,2.38 -8.38,5.57 -11.03,9.61 -2.68,4.04 -4.04,8.98 -4.04,15.07 0,11.75 3.95,19.83 11.88,24.38 7.86,4.52 18.68,6.79 32.39,6.79zm-6.03 -219.17c22.1,0 40.54,2.5 55.22,7.53 14.8,5.04 26.61,12.21 35.51,21.64 8.91,9.29 15.15,20.73 18.83,34.14 3.73,13.39 5.55,28.34 5.55,44.79l0 155.79c-10.74,2.37 -25.59,5.12 -44.71,8.23 -19.13,3.28 -42.21,4.88 -69.4,4.88 -17.15,0 -32.61,-1.54 -46.47,-4.58 -13.95,-3.05 -25.92,-7.99 -35.96,-14.86 -10.06,-6.78 -17.75,-15.83 -23.17,-26.88 -5.34,-11.04 -7.99,-24.54 -7.99,-40.69 0,-15.37 3.04,-28.48 9.28,-39.24 6.18,-10.73 14.47,-19.2 24.92,-25.59 10.37,-6.39 22.25,-10.97 35.66,-13.86 13.41,-2.83 27.27,-4.28 41.74,-4.28 9.68,0 18.29,0.48 25.89,1.3 7.56,0.84 13.65,1.92 18.29,3.22l0 -7.02c0,-12.72 -3.8,-22.94 -11.57,-30.62 -7.69,-7.69 -21.03,-11.58 -40.15,-11.58 -12.72,0 -25.28,0.99 -37.79,2.81 -12.35,1.75 -23.08,4.43 -32.07,7.77l-9.61 -60.33c4.35,-1.3 9.83,-2.83 16.31,-4.28 6.56,-1.51 13.71,-2.89 21.42,-4.04 7.69,-1.21 15.83,-2.2 24.36,-3.04 8.55,-0.82 17.23,-1.21 25.91,-1.21z"></path> <polygon class="fil0" points="9816.05,3209.82 9741.18,3209.82 9741.18,3105.23 9663.25,3105.23 9663.25,3209.82 9588.36,3209.82 9588.36,2945.38 9663.25,2945.38 9663.25,3043.9 9741.18,3043.9 9741.18,2945.38 9816.05,2945.38 "></polygon> <path class="fil0" d="M10220.18 3209.82l-74.89 0 0 -264.44 74.89 0 0 264.44zm-231.73 -52.26c13.77,0 24.59,-2.68 32.45,-7.78 7.91,-5.27 11.79,-13.71 11.79,-25.44 0,-6.02 -1.36,-11.14 -4.03,-15.33 -2.66,-4.19 -6.31,-7.54 -11.04,-10.04 -4.64,-2.53 -10.13,-4.28 -16.3,-5.27 -6.24,-0.99 -12.87,-1.51 -19.89,-1.51 -5.03,0 -10.58,0.3 -16.61,0.99 -6.02,0.67 -10.52,1.36 -13.56,2.05l0 60.25c4.04,0.69 9.37,1.15 16.15,1.54 6.63,0.38 13.72,0.54 21.04,0.54zm-37.19 -118.17c4.73,-1.3 10.82,-2.36 18.36,-3.28 7.55,-0.83 16.15,-1.21 25.91,-1.21 15.37,0 29.93,1.83 43.49,5.55 13.56,3.67 25.38,9.3 35.44,16.78 10.04,7.53 17.97,17.12 23.84,28.72 5.85,11.49 8.83,25.05 8.83,40.44 0,15.38 -2.74,28.73 -8.07,39.91 -5.34,11.27 -13.03,20.43 -23.09,27.73 -10.06,7.17 -22.09,12.5 -35.96,16 -13.95,3.59 -29.41,5.34 -46.53,5.34 -22.12,0 -42.37,-1.15 -60.81,-3.35 -18.42,-2.14 -37.17,-5.57 -56.3,-10.22l0 -256.42 74.89 0 0 94.01z"></path> <path class="fil0" d="M11266.24 3157.56c7.39,0 14.39,-0.16 21.1,-0.52 6.7,-0.39 12.12,-0.84 16.07,-1.54l0 -56.75c-2.96,-0.69 -7.54,-1.38 -13.56,-2.05 -6.01,-0.69 -11.58,-0.99 -16.61,-0.99 -7,0 -13.63,0.36 -19.8,1.29 -6.24,0.85 -11.66,2.36 -16.37,4.71 -4.67,2.38 -8.38,5.57 -11.06,9.61 -2.65,4.04 -4.04,8.98 -4.04,15.07 0,11.75 3.98,19.83 11.82,24.38 7.92,4.52 18.74,6.79 32.45,6.79zm-6.02 -219.17c22.09,0 40.53,2.5 55.24,7.53 14.77,5.04 26.58,12.21 35.5,21.64 8.9,9.29 15.16,20.73 18.81,34.14 3.74,13.39 5.57,28.34 5.57,44.79l0 155.79c-10.75,2.37 -25.67,5.12 -44.81,8.23 -19.04,3.28 -42.19,4.88 -69.32,4.88 -17.14,0 -32.61,-1.54 -46.47,-4.58 -13.95,-3.05 -25.89,-7.99 -35.96,-14.86 -10.06,-6.78 -17.75,-15.83 -23.17,-26.88 -5.33,-11.04 -7.99,-24.54 -7.99,-40.69 0,-15.37 3.05,-28.48 9.29,-39.24 6.17,-10.73 14.49,-19.2 24.92,-25.59 10.36,-6.39 22.24,-10.97 35.65,-13.86 13.41,-2.83 27.28,-4.28 41.75,-4.28 9.67,0 18.29,0.48 25.91,1.3 7.54,0.84 13.63,1.92 18.27,3.22l0 -7.02c0,-12.72 -3.89,-22.94 -11.58,-30.62 -7.68,-7.69 -21.03,-11.58 -40.14,-11.58 -12.81,0 -25.29,0.99 -37.79,2.81 -12.33,1.75 -23.09,4.43 -32.07,7.77l-9.61 -60.33c4.36,-1.3 9.85,-2.83 16.3,-4.28 6.57,-1.51 13.72,-2.89 21.43,-4.04 7.68,-1.21 15.82,-2.2 24.38,-3.04 8.53,-0.82 17.21,-1.21 25.89,-1.21z"></path> <path class="fil0" d="M11508.02 3037.64c7.17,-7.02 14.94,-14.71 23.17,-23.09 8.23,-8.31 16.22,-16.6 23.99,-24.77 7.69,-8.14 15.01,-16.15 22.01,-23.92 7.02,-7.84 13.26,-14.62 18.83,-20.5l90.96 0c-6.63,7.11 -14.94,15.94 -24.84,26.22 -9.82,10.43 -20.34,21.25 -31.39,32.46 -11.04,11.18 -22.25,22.39 -33.43,33.45 -11.28,11.03 -21.79,20.79 -31.77,29.32 10.04,7.69 20.71,17.37 32.07,28.72 11.34,11.49 22.48,23.76 33.45,36.8 10.8,13.09 21.25,26.28 31.07,39.69 9.9,13.39 18.36,26.05 25.29,37.77l-85.23 0c-6.03,-9.04 -12.96,-18.5 -20.67,-28.48 -7.69,-9.91 -15.68,-19.65 -23.99,-29.33 -8.23,-9.61 -16.76,-18.68 -25.38,-27.05 -8.59,-8.38 -16.67,-15.68 -24.14,-21.79l0 106.65 -74.89 0 0 -264.43 74.89 0 0 92.28z"></path> <polygon class="fil0" points="11945.86,3006.71 11861.44,3006.71 11861.44,3209.82 11786.55,3209.82 11786.55,3006.71 11702.07,3006.71 11702.07,2945.38 11945.86,2945.38 "></polygon> <path class="fil0" d="M12221.82 2945.38l0 264.44 -75.41 0c0,-16.76 0.22,-33.45 0.54,-50.06 0.3,-16.54 0.67,-31.85 0.97,-45.93 0.39,-14.11 0.78,-26.44 1.3,-36.95 0.48,-10.61 0.78,-18.36 0.78,-23.39 -9.76,13.78 -19.5,27.64 -29.18,41.74 -9.76,14.02 -19.04,27.88 -27.9,41.44 -8.9,13.57 -17.27,26.59 -25.13,38.94 -7.84,12.42 -14.86,23.75 -20.87,34.21l-65.9 0 0 -264.44 74.95 0c0,16.76 -0.06,32.83 -0.3,47.99 -0.15,15.31 -0.37,29.11 -0.67,41.53 -0.39,12.41 -0.69,23.15 -1.08,32.37 -0.3,9.22 -0.45,16.39 -0.45,21.42 20.1,-29.5 38.63,-56 55.54,-79.47 16.91,-23.47 33.43,-44.72 49.52,-63.84l63.29 0z"></path> <path class="fil0" d="M12357.05 3154.51c4.73,0.69 10.97,1.3 18.9,1.75 7.83,0.54 15.16,0.76 21.85,0.76 16.69,0 29.8,-2.12 39.17,-6.25 9.35,-4.18 14.08,-11.87 14.08,-22.93 0,-10.67 -4.25,-18.12 -12.8,-22.31 -8.53,-4.21 -21.01,-6.32 -37.47,-6.32l-43.73 0 0 55.3zm42.2 -105.6c12.41,0 22.48,-1.6 30.16,-4.71 7.71,-3.21 11.58,-10.15 11.58,-20.88 0,-10.06 -4.34,-16.91 -13.02,-20.64 -8.75,-3.65 -20.11,-5.49 -34.21,-5.49 -4.71,0 -10.82,0.24 -18.35,0.76 -7.54,0.45 -13.63,1.08 -18.36,1.68l0 49.28 42.2 0zm-2.51 165.94c-9.37,0 -19.43,-0.39 -30.17,-1 -10.75,-0.69 -21.25,-1.59 -31.61,-2.82 -10.43,-1.13 -20.19,-2.51 -29.41,-3.96 -9.22,-1.53 -17,-2.98 -23.39,-4.34l0 -253.31c6.39,-1.29 14.17,-2.59 23.39,-3.73 9.22,-1.21 18.98,-2.29 29.41,-3.35 10.36,-0.99 20.86,-1.75 31.61,-2.2 10.74,-0.54 20.8,-0.78 30.17,-0.78 21.79,0 40.15,2.22 55.07,6.56 14.86,4.35 26.97,10.05 36.19,17.06 9.22,7.09 15.85,14.93 19.8,23.63 4.13,8.75 6.12,17.45 6.12,26.19 0,11.67 -2.9,22.4 -8.62,32.16 -5.64,9.67 -12.87,16.76 -21.55,21.1 4.71,1.98 9.44,4.88 14.32,8.53 4.88,3.73 9.28,8.16 13.32,13.34 4.04,5.16 7.32,11.43 9.76,18.58 2.59,7.25 3.8,15.54 3.8,24.83 0,10.75 -2.14,21.18 -6.24,31.16 -4.28,10.13 -11.36,18.98 -21.4,26.67 -10.06,7.78 -23.32,13.95 -39.69,18.59 -16.46,4.73 -36.74,7.09 -60.88,7.09z"></path> <path class="fil0" d="M12813.5 2945.38l0 264.44 -75.41 0c0,-16.76 0.16,-33.45 0.52,-50.06 0.33,-16.54 0.63,-31.85 1,-45.93 0.3,-14.11 0.77,-26.44 1.23,-36.95 0.51,-10.61 0.75,-18.36 0.75,-23.39 -9.67,13.78 -19.43,27.64 -29.17,41.74 -9.68,14.02 -18.98,27.88 -27.88,41.44 -8.92,13.57 -17.23,26.59 -25.14,38.94 -7.86,12.42 -14.79,23.75 -20.82,34.21l-65.88 0 0 -264.44 74.89 0c0,16.76 -0.09,32.83 -0.24,47.99 -0.21,15.31 -0.45,29.11 -0.75,41.53 -0.31,12.41 -0.7,23.15 -1,32.37 -0.3,9.22 -0.54,16.39 -0.54,21.42 20.13,-29.5 38.64,-56 55.63,-79.47 16.91,-23.47 33.37,-44.72 49.43,-63.84l63.38 0z"></path> <polygon class="fil0" points="13092.47,3006.71 13008.05,3006.71 13008.05,3209.82 12933.16,3209.82 12933.16,3006.71 12848.68,3006.71 12848.68,2945.38 13092.47,2945.38 "></polygon> <path class="fil0" d="M13368.43 2945.38l0 264.44 -75.43 0c0,-16.76 0.24,-33.45 0.54,-50.06 0.3,-16.54 0.6,-31.85 0.99,-45.93 0.39,-14.11 0.76,-26.44 1.21,-36.95 0.54,-10.61 0.84,-18.36 0.84,-23.39 -9.74,13.78 -19.5,27.64 -29.17,41.74 -9.74,14.02 -19.05,27.88 -27.88,41.44 -8.92,13.57 -17.3,26.59 -25.14,38.94 -7.86,12.42 -14.85,23.75 -20.88,34.21l-65.89 0 0 -264.44 74.96 0c0,16.76 -0.15,32.83 -0.3,47.99 -0.15,15.31 -0.46,29.11 -0.69,41.53 -0.39,12.41 -0.69,23.15 -1.06,32.37 -0.3,9.22 -0.45,16.39 -0.45,21.42 20.01,-29.5 38.54,-56 55.52,-79.47 16.91,-23.47 33.45,-44.72 49.45,-63.84l63.38 0z"></path> <polygon class="fil0" points="13767.05,2945.38 13767.05,3209.82 13692.16,3209.82 13692.16,3007.69 13614.22,3007.69 13614.22,3209.82 13539.35,3209.82 13539.35,2945.38 "></polygon> <path class="fil0" d="M13928.41 3157.56c7.39,0 14.4,-0.16 21.1,-0.52 6.71,-0.39 12.11,-0.84 16.09,-1.54l0 -56.75c-2.98,-0.69 -7.54,-1.38 -13.56,-2.05 -6.03,-0.69 -11.58,-0.99 -16.61,-0.99 -7.02,0 -13.65,0.36 -19.8,1.29 -6.27,0.85 -11.67,2.36 -16.39,4.71 -4.73,2.38 -8.38,5.57 -11.04,9.61 -2.68,4.04 -4.04,8.98 -4.04,15.07 0,11.75 3.95,19.83 11.79,24.38 7.93,4.52 18.75,6.79 32.46,6.79zm-6 -219.17c22.09,0 40.51,2.5 55.22,7.53 14.79,5.04 26.58,12.21 35.5,21.64 8.92,9.29 15.16,20.73 18.81,34.14 3.73,13.39 5.57,28.34 5.57,44.79l0 155.79c-10.73,2.37 -25.68,5.12 -44.79,8.23 -19.05,3.28 -42.22,4.88 -69.34,4.88 -17.13,0 -32.61,-1.54 -46.54,-4.58 -13.86,-3.05 -25.83,-7.99 -35.89,-14.86 -10.04,-6.78 -17.75,-15.83 -23.15,-26.88 -5.33,-11.04 -8.01,-24.54 -8.01,-40.69 0,-15.37 3.07,-28.48 9.22,-39.24 6.26,-10.73 14.55,-19.2 24.99,-25.59 10.36,-6.39 22.26,-10.97 35.65,-13.86 13.41,-2.83 27.27,-4.28 41.68,-4.28 9.76,0 18.35,0.48 25.98,1.3 7.47,0.84 13.56,1.92 18.29,3.22l0 -7.02c0,-12.72 -3.89,-22.94 -11.58,-30.62 -7.71,-7.69 -21.03,-11.58 -40.16,-11.58 -12.79,0 -25.36,0.99 -37.77,2.81 -12.36,1.75 -23.09,4.43 -32.09,7.77l-9.59 -60.33c4.34,-1.3 9.82,-2.83 16.3,-4.28 6.54,-1.51 13.71,-2.89 21.4,-4.04 7.69,-1.21 15.85,-2.2 24.38,-3.04 8.53,-0.82 17.15,-1.21 25.92,-1.21z"></path> <path class="fil0" d="M14264.69 3079.62c0,-23.15 -5.19,-41.59 -15.62,-55.52 -10.36,-13.95 -25.74,-20.88 -46.23,-20.88 -6.63,0 -12.89,0.23 -18.59,0.75 -5.64,0.54 -10.37,1.08 -14.02,1.75l0 135.23c4.64,3.04 10.73,5.48 18.27,7.56 7.56,1.96 15.25,2.96 22.93,2.96 35.51,0 53.26,-23.93 53.26,-71.85zm76.42 -2.05c0,20.49 -2.52,39.08 -7.56,55.84 -5.03,16.76 -12.41,31.16 -22.09,43.19 -9.74,12.12 -21.79,21.49 -36.17,28.21 -14.4,6.6 -31.01,10.04 -49.84,10.04 -10.34,0 -20.02,-1 -29.09,-3.05 -9.07,-1.98 -17.75,-4.88 -26.13,-8.53l0 99.58 -74.98 0 0 -348.4c6.72,-1.96 14.49,-3.95 23.17,-5.78 8.69,-1.82 17.82,-3.44 27.34,-4.8 9.61,-1.29 19.29,-2.44 29.18,-3.28 9.91,-0.76 19.43,-1.21 28.42,-1.21 21.79,0 41.22,3.26 58.28,9.74 17.15,6.63 31.55,15.79 43.28,27.73 11.72,11.9 20.71,26.37 26.88,43.43 6.18,17.14 9.31,36.19 9.31,57.29z"></path> <path class="fil0" d="M14463.75 3037.64c7.15,-7.02 14.92,-14.71 23.15,-23.09 8.23,-8.31 16.22,-16.6 23.99,-24.77 7.71,-8.14 15.1,-16.15 22.03,-23.92 7,-7.84 13.26,-14.62 18.81,-20.5l90.96 0c-6.63,7.11 -14.93,15.94 -24.84,26.22 -9.82,10.43 -20.34,21.25 -31.38,32.46 -11.05,11.18 -22.24,22.39 -33.45,33.45 -11.27,11.03 -21.79,20.79 -31.68,29.32 9.98,7.69 20.65,17.37 31.99,28.72 11.36,11.49 22.54,23.76 33.45,36.8 10.82,13.09 21.25,26.28 31.07,39.69 9.91,13.39 18.36,26.05 25.38,37.77l-85.33 0c-6.02,-9.04 -12.87,-18.5 -20.64,-28.48 -7.69,-9.91 -15.7,-19.65 -23.99,-29.33 -8.23,-9.61 -16.7,-18.68 -25.38,-27.05 -8.61,-8.38 -16.69,-15.68 -24.14,-21.79l0 106.65 -74.89 0 0 -264.43 74.89 0 0 92.28z"></path> <path class="fil0" d="M14914.14 2945.38l0 264.44 -75.41 0c0,-16.76 0.21,-33.45 0.51,-50.06 0.31,-16.54 0.69,-31.85 1,-45.93 0.39,-14.11 0.75,-26.44 1.29,-36.95 0.46,-10.61 0.76,-18.36 0.76,-23.39 -9.74,13.78 -19.42,27.64 -29.18,41.74 -9.74,14.02 -19.04,27.88 -27.88,41.44 -8.91,13.57 -17.29,26.59 -25.13,38.94 -7.84,12.42 -14.86,23.75 -20.88,34.21l-65.89 0 0 -264.44 74.96 0c0,16.76 -0.07,32.83 -0.31,47.99 -0.15,15.31 -0.39,29.11 -0.69,41.53 -0.36,12.41 -0.67,23.15 -1.06,32.37 -0.3,9.22 -0.45,16.39 -0.45,21.42 20.11,-29.5 38.61,-56 55.52,-79.47 16.93,-23.47 33.45,-44.72 49.54,-63.84l63.3 0z"></path> <path class="fil0" d="M11554.04 2517.03c-151.45,0 -169.2,-413.14 -169.59,-467.36 -0.75,-89.69 32.07,-464.04 169.59,-464.04 120.74,0 161.21,341.14 160.43,464.04 -0.76,117.93 -29.33,467.36 -160.43,467.36zm0 -977.57c-496.25,0 -531.3,433.09 -531.3,518.89 0,76.55 44.81,508.21 531.3,508.21 489.32,0 531.67,-413.15 531.67,-531.69 0,-111.15 -74.5,-495.41 -531.67,-495.41z"></path> <path class="fil0" d="M12685.88 2517.03c-151.45,0 -169.2,-413.14 -169.65,-467.36 -0.69,-89.69 32.15,-464.04 169.65,-464.04 120.76,0 161.2,341.14 160.45,464.04 -0.78,117.93 -29.35,467.36 -160.45,467.36zm0 -977.57c-496.26,0 -531.3,433.09 -531.3,518.89 0,76.55 44.81,508.21 531.3,508.21 489.32,0 531.69,-413.15 531.69,-531.69 0,-111.15 -74.53,-495.41 -531.69,-495.41z"></path> <path class="fil0" d="M14986.67 2432.01c0,0 -16,19.56 -47.07,19.56 -46.17,0 -51.96,-56.45 -55.24,-92.32l0 -0.54c0,-142.85 -0.07,-330.01 0.15,-437.9 0.08,-25.98 37.1,-377.24 -258.65,-377.24 -206.83,0 -317.21,156.32 -361.09,238.36 -16.69,-107.87 -73.2,-238.45 -253.54,-238.45 -280.2,0 -384.03,287.6 -384.03,287.6l0 -273.2c0,0 -159.07,44.58 -341.67,44.58l0 950.74 341.67 0c0,0 -0.15,-437.34 0,-628.65 0,0 54.01,-208.35 200.51,-208.35 81.14,0 103.14,65.88 103.77,161.66 1.29,222.14 0,675.34 0,675.34l338.39 0c0,0 -0.39,-441.08 0,-632.3 0,-6.63 2.44,-34.06 1.14,-71.31 29.87,-59.73 84.18,-133.39 171.25,-133.39 81.22,0 103.25,65.88 103.85,161.57 0.69,115.88 0.69,294.45 0.46,438.81 0.45,34.81 11.57,188.48 134.77,236.62 23.3,9.15 50.81,14.49 82.88,14.49 37.79,0 70.38,-5.64 98.28,-14.49 7.6,-2.27 15.01,-5.01 22.01,-7.91 82.66,-33.9 115.49,-94.63 115.49,-94.63l-13.33 -18.65z"></path> <path class="fil0" d="M9288.14 2212.23c0.07,64.92 -23.77,128.6 -70.46,173.71 -23.84,23.07 -52.95,40.75 -85.95,40.75 -165.22,0 -175.37,-298.87 -176.13,-352.79 -1.66,-122.21 50.06,-507.77 214.76,-507.77l0.46 0c85.56,0 117.62,100.57 117.39,142.08 -0.37,147.19 -0.31,343.75 -0.07,504.02zm-2922.28 -626.75c32.91,0 131.04,29.87 131.04,251.63 0,132.57 -69.86,296.58 -293.6,333.08 -55.7,-216.66 25.05,-584.71 162.56,-584.71zm3332.76 848.53c-34.44,-11.29 -69.04,-35.28 -69.04,-145.59 0,-24.98 -0.67,-749.11 -0.67,-749.11 0,0 -91.13,57.9 -199.99,57.9 -76.79,0 -155.03,-55.91 -262.44,-55.91 -394.33,0 -586.52,299.54 -586.52,577.54 0,126 24.83,223.83 69.08,295.74 -11.88,4.28 -24.75,6.93 -39,6.93 -134.93,0 -224.96,-158.01 -270.98,-266.87 -22.09,-51.96 -68.8,-173.99 -218.26,-173.99 -7.86,-0.15 -14.94,-0.24 -21.64,-0.39 16.68,-5.33 33.91,-11.66 51.88,-19.65 298.78,-133.7 298.78,-476.97 298.78,-476.97 -160.96,61.01 -326.21,54.46 -326.21,54.46 -21.01,395.93 -196.77,437.21 -253.61,440.11l0 -810.66c0,0 -126.38,66.13 -340.23,66.13 2.22,330.4 0.99,685.64 0.99,1015.89 0,90.57 -86.23,184.9 -183.45,184.9 -53.47,0 -75.04,-38.94 -77,-121.52 -0.24,-9.76 -0.24,-19.19 -0.24,-28.96l0 -608.37c0,-100.35 -0.54,-122.21 -1,-126.09 0,0 -114.41,69.01 -328.71,70.91l0 676.06c-69.56,80.68 -231.22,192.43 -367.44,192.43 -282.55,0 -354.85,-266.33 -354.85,-266.33 521.84,106.51 670.63,-276.16 555.2,-479.56 -35.65,-62.93 -151.89,-203.73 -407.41,-203.73 -496.4,0 -531.36,433.02 -531.36,518.97 0,239.43 186.64,528.99 656.29,508.05 189.48,-8.38 344.59,-102.99 449.57,-195.78l0 6.99c15.54,78.26 64.37,188.79 231.52,188.79 232.03,0 359.12,-191.44 359.12,-191.44 0,60.79 -0.69,175.67 -0.69,175.67l339.69 0 0 -533.26c39.69,8.07 72.3,38.69 79.77,79.59l0.24 1.08c25.35,141.69 125.83,486.19 423.8,486.19 140.93,0 239.42,-59.04 303.88,-129.59 1.21,1.45 2.36,3.05 3.59,4.43 64.59,74.11 156.69,109.62 266.55,109.62 253.39,0 337.18,-201.96 340.38,-208.05 0,62.93 69.79,201.11 235.25,201.96 209.58,1.05 275.1,-119.08 275.1,-119.08l-15.61 -22.54c0,0 -38.48,28.03 -84.33,13.1z"></path> <path class="fil0" d="M7104.41 1510.83c108.17,0.21 196.32,-83.66 195.24,-185.74 -1.06,-97.68 -89.57,-176.07 -198.22,-175.37 -112.21,0.75 -199,79.77 -199.3,181.46 -0.21,97.67 91.8,179.5 202.28,179.65z"></path> <path class="fil0" d="M6084.35 1579.57l0 -358.68 -1199.86 0 0 358.68 37.17 -0.24c0,0 238.9,2.29 336.03,-303.5l47.92 0 0 1277.35 357.68 0 0 -1277.35 47.84 0c87.24,301.75 336.03,303.5 336.03,303.5l37.19 0.24z"></path> <path class="fil0" d="M10400.89 2474.53c-100.78,27.42 -161.66,-40.99 -161.66,-40.99 -0.07,-141.56 -0.15,-367.29 -0.07,-575.64l48.38 -0.08c22.93,-0.07 45.93,1.44 68.17,6.86 191.77,46.17 205.85,259.47 206.93,279.21 8.14,150.45 -27.97,294.14 -161.75,330.64zm-161.66 -1159.96c0,-0.45 33.06,-49.75 130.95,-49.75 152.07,0 164.49,190.47 164.49,221.54 0,54.01 -12.65,124.26 -40.84,187.79 -44.18,99.27 -145.96,150.45 -254.67,150.39l0 -28.36c0,-255.57 0.07,-481.85 0.07,-481.61zm167.45 520.25c27.42,0 504.41,-39.63 504.41,-381.76 0,-59.73 -48.69,-264.34 -335.37,-264.34 -122.42,0 -211.93,25.74 -267.78,48.91 -80.59,33.51 -166.99,52.48 -254.21,48.37 -57.21,-2.68 -122.06,-11.72 -186.26,-33.6 0,70.25 0.52,1244.97 0.52,1300.88l371.24 0 0 -69.62c0,0 67.87,86.17 302.98,86.17 349.53,0 411.62,-216.97 411.62,-359.52 0,-123.02 -48.37,-375.49 -547.15,-375.49z"></path> <path class="fil0" d="M10453.93 3061.44l102.85 67.8c10.28,6.79 16.52,18.12 16.76,30.48l2.51 123.11c0.62,31.01 36.49,47.83 60.72,28.48l96.23 -76.85c9.59,-7.71 22.39,-10.15 34.2,-6.57l117.85 35.74c29.63,8.9 56.75,-19.97 45.87,-49l-43.43 -115.25c-4.28,-11.51 -2.66,-24.47 4.34,-34.6l70.4 -101.02c17.75,-25.44 -1.45,-60.1 -32.39,-58.74l-123.03 5.66c-12.27,0.52 -24.08,-4.97 -31.53,-14.79l-74.35 -98.13c-18.68,-24.75 -57.59,-17.27 -65.82,12.66l-32.7 118.68c-3.28,11.81 -12.18,21.34 -23.84,25.38l-116.33 40.38c-29.26,10.19 -34.12,49.52 -8.31,66.58z"></path> </g> </g> </svg> 